<svg width="573" height="447" viewBox="0 0 573 447" fill="none" xmlns="http://www.w3.org/2000/svg">
<path d="M243.93 325.873H207.948C205.761 325.873 203.827 327.295 203.175 329.383L176.001 416.468C174.046 422.733 168.245 427 161.682 427H108.15C97.8152 427 90.5764 416.793 93.9941 407.04L228.898 22.0397C231.005 16.026 236.682 12 243.054 12H327.617C333.949 12 339.599 15.9761 341.736 21.9365L354.575 57.7381M281.456 325.873H282.309M318.13 325.873H357.523C359.711 325.873 361.644 327.295 362.296 329.383L389.471 416.468C391.426 422.733 397.226 427 403.79 427H465.685C476.067 427 483.309 416.708 479.805 406.936L392.757 164.206M334.712 262.678L228.46 265.274C224.993 265.358 222.494 261.973 223.598 258.685L275.97 102.599C277.484 98.0863 283.851 98.0422 285.428 102.534L339.307 256.024C340.432 259.227 338.105 262.596 334.712 262.678Z" stroke="#45474B" stroke-width="16" stroke-linecap="round"/>
<path d="M399.473 56.7847V96.7637M399.473 136.401V96.7637M399.473 96.7637H359.07M399.473 96.7637H440.487" stroke="#FFD600" stroke-width="16" stroke-linecap="round"/>
</svg>
