<svg width="573" height="447" viewBox="0 0 573 447" fill="none" xmlns="http://www.w3.org/2000/svg">
<path d="M66.9092 196.514L77.5447 202.491C78.239 202.882 78.2208 203.887 77.5127 204.252L66.8838 209.728C66.7024 209.821 66.554 209.968 66.4584 210.148L60.9362 220.557C60.5603 221.266 59.5453 221.266 59.1694 220.557L53.6597 210.171C53.5564 209.977 53.3916 209.821 53.191 209.73L41.2141 204.272C40.4481 203.923 40.4298 202.841 41.1836 202.467L53.1938 196.496C53.3925 196.397 53.5527 196.235 53.6492 196.035L59.6221 183.663C59.9986 182.883 61.1209 182.918 61.4484 183.719L66.4734 196.021C66.5588 196.23 66.7124 196.404 66.9092 196.514Z" stroke="#F4CE19" stroke-width="8" stroke-linecap="round"/>
<path d="M129.838 225.133L145.429 234.724C146.078 235.123 146.06 236.072 145.397 236.447L129.817 245.232C129.663 245.319 129.534 245.445 129.445 245.598L119.951 261.815C119.551 262.497 118.556 262.468 118.197 261.764L109.979 245.649C109.885 245.464 109.736 245.313 109.552 245.217L92.748 236.433C92.0584 236.073 92.0266 235.097 92.6912 234.693L108.39 225.135C108.561 225.031 108.697 224.878 108.78 224.696L118.125 204.203C118.48 203.425 119.583 203.422 119.942 204.197L129.455 224.702C129.537 224.88 129.671 225.03 129.838 225.133Z" stroke="#F4CE19" stroke-width="8" stroke-linecap="round"/>
<path fill-rule="evenodd" clip-rule="evenodd" d="M359.511 31.9333C358.687 25.8546 363.03 20.3994 368.692 20.3994H506.527C511.972 20.3994 516.247 25.4625 515.771 31.3479L489.516 356.226H388.15L385.696 336.255C385.178 332.04 381.609 329.079 377.724 329.641C373.839 330.203 371.11 334.075 371.628 338.29L374.272 359.803C375.103 366.571 380.424 371.625 386.716 371.625H393.596L394.594 410.245C394.95 424.028 405.349 434.497 418.055 434.497H458.354C471.317 434.497 481.826 423.597 481.826 409.532V371.625H491.017C497.525 371.625 502.954 366.228 503.523 359.193L529.908 32.6931C531.111 17.8064 520.299 5 506.527 5H368.692C354.37 5 343.387 18.7982 345.47 34.1738L353.629 94.371C354.199 98.5781 357.804 101.487 361.682 100.868C365.559 100.25 368.24 96.3376 367.67 92.1304L359.511 31.9333ZM408.214 387.913L407.793 371.625H467.634V387.913H456.717C452.798 387.913 449.621 391.361 449.621 395.613C449.621 399.865 452.798 403.313 456.717 403.313H467.634V409.532C467.634 415.093 463.479 419.601 458.354 419.601H418.055C413.032 419.601 408.921 415.263 408.78 409.814L408.612 403.313H439.25C443.169 403.313 446.346 399.865 446.346 395.613C446.346 391.361 443.169 387.913 439.25 387.913H408.214Z" fill="#45474B"/>
<path d="M374.841 42.3141C370.922 42.3141 367.745 45.7613 367.745 50.0138C367.745 54.2662 370.922 57.7135 374.841 57.7135H503.113C507.032 57.7135 510.209 54.2662 510.209 50.0138C510.209 45.7613 507.032 42.3141 503.113 42.3141H374.841Z" fill="#45474B"/>
<path fill-rule="evenodd" clip-rule="evenodd" d="M384.666 143.003C384.666 133.189 391.998 125.234 401.041 125.234H473.092C482.136 125.234 489.467 133.189 489.467 143.003V166.694C489.467 176.508 482.136 184.463 473.092 184.463H401.041C391.998 184.463 384.666 176.508 384.666 166.694V143.003ZM401.041 140.634H473.092C474.298 140.634 475.276 141.694 475.276 143.003V166.694C475.276 168.003 474.298 169.063 473.092 169.063H401.041C399.835 169.063 398.858 168.003 398.858 166.694V143.003C398.858 141.694 399.835 140.634 401.041 140.634Z" fill="#45474B"/>
<path fill-rule="evenodd" clip-rule="evenodd" d="M404.316 217.631C404.316 207.818 411.648 199.862 420.692 199.862H454.534C463.577 199.862 470.909 207.818 470.909 217.631C470.909 227.444 463.577 235.399 454.534 235.399H420.692C411.648 235.399 404.316 227.444 404.316 217.631ZM420.692 211.708H454.534C457.548 211.708 459.992 214.36 459.992 217.631C459.992 220.902 457.548 223.554 454.534 223.554H420.692C417.677 223.554 415.233 220.902 415.233 217.631C415.233 214.36 417.677 211.708 420.692 211.708Z" fill="#45474B"/>
<path fill-rule="evenodd" clip-rule="evenodd" d="M231.136 121.088H222.948V179.725H345.868L346.746 121.088H257.336C253.718 121.088 250.24 117.906 250.24 113.981C250.24 110.055 253.718 106.873 257.336 106.873H347.856C354.564 106.873 359.972 112.837 359.863 120.115L358.948 181.121C358.842 188.234 353.498 193.939 346.942 193.939H342.487V204.008H344.67C357.331 204.008 367.05 215.146 367.05 228.884V270.937C367.05 274.862 364.117 278.044 360.5 278.044C356.882 278.044 353.949 274.862 353.949 270.937V263.829H234.411C230.793 263.829 227.861 260.647 227.861 256.722C227.861 252.796 230.793 249.614 234.411 249.614H353.949V228.884C353.949 222.996 350.097 218.223 344.67 218.223H228.952C223.526 218.223 219.127 222.996 219.127 228.884V240.138C219.127 244.063 216.195 247.245 212.577 247.245C208.96 247.245 206.027 244.063 206.027 240.138V228.884C206.027 216.766 214.013 206.671 224.585 204.459V193.939H221.856C215.224 193.939 209.848 188.106 209.848 180.909V119.904C209.848 112.707 215.224 106.873 221.856 106.873H231.136C234.753 106.873 237.686 110.055 237.686 113.981C237.686 117.906 234.753 121.088 231.136 121.088ZM237.686 193.939H329.387V204.008H237.686V193.939Z" fill="#45474B"/>
<path d="M241.507 132.342C241.507 128.416 238.574 125.234 234.956 125.234C231.339 125.234 228.406 128.416 228.406 132.342V167.879C228.406 171.804 231.339 174.986 234.956 174.986C238.574 174.986 241.507 171.804 241.507 167.879V132.342Z" fill="#45474B"/>
<path d="M261.157 132.342C261.157 128.416 258.224 125.234 254.607 125.234C250.989 125.234 248.057 128.416 248.057 132.342V167.879C248.057 171.804 250.989 174.986 254.607 174.986C258.224 174.986 261.157 171.804 261.157 167.879V132.342Z" fill="#45474B"/>
<path d="M280.807 132.342C280.807 128.416 277.874 125.234 274.257 125.234C270.639 125.234 267.707 128.416 267.707 132.342V167.879C267.707 171.804 270.639 174.986 274.257 174.986C277.874 174.986 280.807 171.804 280.807 167.879V132.342Z" fill="#45474B"/>
<path d="M300.457 132.342C300.457 128.416 297.525 125.234 293.907 125.234C290.29 125.234 287.357 128.416 287.357 132.342V167.879C287.357 171.804 290.29 174.986 293.907 174.986C297.525 174.986 300.457 171.804 300.457 167.879V132.342Z" fill="#45474B"/>
<path d="M320.107 132.342C320.107 128.416 317.175 125.234 313.557 125.234C309.94 125.234 307.007 128.416 307.007 132.342V167.879C307.007 171.804 309.94 174.986 313.557 174.986C317.175 174.986 320.107 171.804 320.107 167.879V132.342Z" fill="#45474B"/>
<path d="M339.758 132.342C339.758 128.416 336.825 125.234 333.208 125.234C329.59 125.234 326.658 128.416 326.658 132.342V167.879C326.658 171.804 329.59 174.986 333.208 174.986C336.825 174.986 339.758 171.804 339.758 167.879V132.342Z" fill="#45474B"/>
<path d="M244.236 275.083C240.618 275.083 237.686 278.265 237.686 282.19C237.686 286.115 240.618 289.298 244.236 289.298H329.933V321.873H244.236C240.618 321.873 237.686 325.055 237.686 328.981C237.686 332.906 240.618 336.088 244.236 336.088H331.024C337.656 336.088 343.033 330.254 343.033 323.058V288.113C343.033 280.917 337.656 275.083 331.024 275.083H244.236Z" fill="#45474B"/>
<path d="M367.05 298.774C367.05 294.849 364.117 291.074 360.5 291.074C356.882 291.074 353.949 294.849 353.949 298.774V372.81H243.144C239.527 372.81 236.594 375.992 236.594 379.917C236.594 383.843 239.527 387.025 243.144 387.025H353.949V394.725C353.949 400.613 349.551 405.386 344.124 405.386H228.406C224.789 405.386 221.856 408.568 221.856 412.493C221.856 416.418 224.789 419.601 228.406 419.601H344.124C356.786 419.601 367.05 408.463 367.05 394.725V298.774Z" fill="#45474B"/>
<path d="M246.419 348.526C242.802 348.526 239.869 351.708 239.869 355.634C239.869 359.559 242.802 362.741 246.419 362.741H270.982C274.599 362.741 277.532 359.559 277.532 355.634C277.532 351.708 274.599 348.526 270.982 348.526H246.419Z" fill="#45474B"/>
<path d="M286.811 348.526C283.194 348.526 280.261 351.708 280.261 355.634C280.261 359.559 283.194 362.741 286.811 362.741H341.395C345.013 362.741 347.945 359.559 347.945 355.634C347.945 351.708 345.013 348.526 341.395 348.526H286.811Z" fill="#45474B"/>
<path d="M145.985 291.667C145.985 271.487 161.072 254.945 179.554 254.945C198.093 254.945 213.123 271.253 213.123 291.371V321.873H185.285C181.668 321.873 178.735 325.055 178.735 328.981C178.735 332.906 181.668 336.088 185.285 336.088H213.123V343.196H185.285C181.668 343.196 178.735 346.378 178.735 350.303C178.735 354.228 181.668 357.41 185.285 357.41H213.123V371.625C213.123 393.869 196.505 411.901 176.006 411.901H159.085C155.467 411.901 152.535 415.083 152.535 419.008C152.535 422.934 155.467 426.116 159.085 426.116H176.006C203.74 426.116 226.223 401.72 226.223 371.625V291.371C226.223 263.403 205.328 240.73 179.554 240.73C153.721 240.73 132.884 263.762 132.884 291.667C132.884 295.592 135.817 298.774 139.434 298.774C143.052 298.774 145.985 295.592 145.985 291.667Z" fill="#45474B"/>
<path fill-rule="evenodd" clip-rule="evenodd" d="M103.409 435C138.981 435 167.818 403.709 167.818 365.11C167.818 326.511 138.981 295.22 103.409 295.22C67.8369 295.22 39 326.511 39 365.11C39 403.709 67.8369 435 103.409 435ZM103.409 420.785C111.561 420.785 119.269 418.722 126.114 415.051L101.191 390.511C98.5119 387.874 98.3108 383.379 100.742 380.472C103.173 377.565 107.315 377.347 109.994 379.984L137.321 406.892C139.064 405.225 140.702 403.432 142.222 401.525L66.4333 326.511C64.3575 328.851 62.4687 331.389 60.793 334.094L91.3648 363.332C94.0787 365.927 94.3397 370.419 91.9478 373.363C89.5559 376.308 85.4169 376.591 82.703 373.996L54.7832 347.295C53.0433 352.888 52.1002 358.88 52.1002 365.11C52.1002 395.859 75.0719 420.785 103.409 420.785ZM76.7797 317.511C84.5426 312.387 93.6582 309.435 103.409 309.435C131.746 309.435 154.718 334.362 154.718 365.11C154.718 373.867 152.855 382.152 149.535 389.523L76.7797 317.511Z" fill="#45474B"/>
</svg>
