<svg width="739" height="739" viewBox="0 0 739 739" fill="none" xmlns="http://www.w3.org/2000/svg">
<path d="M198 277H564M198 277C195.239 277 193 279.239 193 282V301.5C193 303.136 193.786 304.588 195 305.5M198 277L244 208M564 277C566.761 277 569 279.239 569 282V301.5C569 303.136 568.214 304.588 567 305.5M564 277L518 208M247 337.595C247 351.178 235.989 365 222.405 365C207.27 365 195 352.73 195 337.595V305.5M247 337.595C247 352.73 259.27 365 274.405 365C287.989 365 299 351.178 299 337.595M247 337.595V306.5M299 337.595C299 352.73 313.27 365 328.405 365C341.989 365 353 351.178 353 337.595M299 337.595V306.5M353 337.595C353 352.73 367.27 365 382.405 365C395.989 365 407 351.178 407 337.595M353 337.595V306.5M407 337.595C407 352.73 419.27 365 434.405 365C447.989 365 459 351.178 459 337.595M407 337.595V306.5M459 337.595C459 352.73 473.27 365 488.405 365C501.989 365 513 351.178 513 337.595M459 337.595V306.5M513 337.595C513 352.73 527.27 365 542.405 365M513 337.595V306.5M542.405 365C555.989 365 567 353.989 567 340.405V305.5M542.405 365V559C542.405 567.284 535.284 574 527 574L345.5 572.438M195 305.5C195.836 306.128 196.874 306.5 198 306.5H247M567 305.5C566.164 306.128 565.126 306.5 564 306.5H513M513 306.5H459M459 306.5H407M407 306.5H353M353 306.5H299M299 306.5H247M219 412.5L221.5 556.5C221.5 564.784 228.216 571.5 236.5 571.5L268.5 571.775M268.5 571.775L345.5 572.438M268.5 571.775V492.138M345.5 572.438V492.469M268.5 492.138V452.319M268.5 492.138L307 492.303M345.5 492.469V452.484M345.5 492.469L307 492.303M345.5 452.484V427.5C345.5 419.216 338.784 412.5 330.5 412.5H307M345.5 452.484L268.5 452.319M268.5 452.319V427.5C268.5 419.216 275.216 412.5 283.5 412.5H307M307 412.5V492.303M321.5 188H264C252.954 188 244 196.954 244 208M244 208V257C244 268.046 252.954 277 264 277H498C509.046 277 518 268.046 518 257V208M518 208C518 196.954 509.046 188 498 188H349.192" stroke="#45474B" stroke-width="13" stroke-linecap="round"/>
<path fill-rule="evenodd" clip-rule="evenodd" d="M375.5 415C375.5 410.306 379.306 406.5 384 406.5H504C508.694 406.5 512.5 410.306 512.5 415V482C512.5 486.694 508.694 490.5 504 490.5H494.926C491.336 490.5 488.426 493.41 488.426 497C488.426 500.59 491.336 503.5 494.926 503.5H504C515.874 503.5 525.5 493.874 525.5 482V415C525.5 403.126 515.874 393.5 504 393.5H384C372.126 393.5 362.5 403.126 362.5 415V482C362.5 493.874 372.126 503.5 384 503.5H472.241C475.831 503.5 478.741 500.59 478.741 497C478.741 493.41 475.831 490.5 472.241 490.5H384C379.306 490.5 375.5 486.694 375.5 482V415ZM460 448.5C460 457.613 452.613 465 443.5 465C434.387 465 427 457.613 427 448.5C427 439.387 434.387 432 443.5 432C452.613 432 460 439.387 460 448.5ZM470 448.5C470 463.136 458.136 475 443.5 475C428.864 475 417 463.136 417 448.5C417 433.864 428.864 422 443.5 422C458.136 422 470 433.864 470 448.5Z" fill="#F4CE19"/>
</svg>
