<svg width="573" height="447" viewBox="0 0 573 447" fill="none" xmlns="http://www.w3.org/2000/svg">
<path d="M76.6915 107.07H493.309M76.6915 107.07C73.5482 107.07 71 109.512 71 112.523V133.791C71 135.576 71.8942 137.16 73.2766 138.155M76.6915 107.07L129.053 31.8135M493.309 107.07C496.452 107.07 499 109.512 499 112.523V133.791C499 135.576 498.106 137.16 496.723 138.155M493.309 107.07L440.947 31.8135M132.468 173.159C132.468 187.974 119.934 203.049 104.472 203.049C87.2433 203.049 73.2766 189.667 73.2766 173.159V138.155M132.468 173.159C132.468 189.667 146.435 203.049 163.664 203.049C179.125 203.049 191.66 187.974 191.66 173.159M132.468 173.159V139.245M191.66 173.159C191.66 189.667 207.903 203.049 225.132 203.049C240.593 203.049 253.128 187.974 253.128 173.159M191.66 173.159V139.245M253.128 173.159C253.128 189.667 269.371 203.049 286.6 203.049C302.062 203.049 314.596 187.974 314.596 173.159M253.128 173.159V139.245M314.596 173.159C314.596 189.667 328.562 203.049 345.791 203.049C361.253 203.049 373.787 187.974 373.787 173.159M314.596 173.159V139.245M373.787 173.159C373.787 189.667 390.031 203.049 407.259 203.049C422.721 203.049 435.255 187.974 435.255 173.159M373.787 173.159V139.245M435.255 173.159C435.255 189.667 451.499 203.049 468.727 203.049M435.255 173.159V139.245M468.727 203.049C484.189 203.049 496.723 191.039 496.723 176.225V138.155M468.727 203.049V414.64C468.727 423.675 460.621 431 451.192 431L244.59 429.296M73.2766 138.155C74.2278 138.839 75.4102 139.245 76.6915 139.245H132.468M496.723 138.155C495.772 138.839 494.59 139.245 493.309 139.245H435.255M435.255 139.245H373.787M373.787 139.245H314.596M314.596 139.245H253.128M253.128 139.245H191.66M191.66 139.245H132.468M100.596 254.856L103.441 411.913C103.441 420.949 111.086 428.273 120.516 428.273L156.941 428.574M156.941 428.574L244.59 429.296M156.941 428.574V341.715M244.59 429.296V342.076M156.941 341.715V298.286M156.941 341.715L200.766 341.896M244.59 342.076V298.466M244.59 342.076L200.766 341.896M244.59 298.466V271.216C244.59 262.181 236.946 254.856 227.516 254.856H200.766M244.59 298.466L156.941 298.286M156.941 298.286V271.216C156.941 262.181 164.586 254.856 174.016 254.856H200.766M200.766 254.856V341.896M217.271 10H151.819C139.246 10 129.053 19.7662 129.053 31.8135M129.053 31.8135V85.2565C129.053 97.3037 139.246 107.07 151.819 107.07H418.181C430.754 107.07 440.947 97.3037 440.947 85.2565V31.8135M440.947 31.8135C440.947 19.7662 430.754 10 418.181 10H248.793" stroke="#45474B" stroke-width="13" stroke-linecap="round"/>
<path fill-rule="evenodd" clip-rule="evenodd" d="M277.82 262.151C277.82 257.457 281.626 253.651 286.32 253.651H427.305C431.999 253.651 435.805 257.457 435.805 262.151V340.659C435.805 345.354 431.999 349.159 427.305 349.159H414.863C411.273 349.159 408.363 352.07 408.363 355.659C408.363 359.249 411.273 362.159 414.863 362.159H427.305C439.179 362.159 448.805 352.534 448.805 340.659V262.151C448.805 250.277 439.179 240.651 427.305 240.651H286.32C274.446 240.651 264.82 250.277 264.82 262.151V340.659C264.82 352.534 274.446 362.159 286.32 362.159H389.004C392.594 362.159 395.504 359.249 395.504 355.659C395.504 352.07 392.594 349.159 389.004 349.159H286.32C281.626 349.159 277.82 345.354 277.82 340.659V262.151ZM376.454 301.405C376.454 312.078 367.585 321.049 356.246 321.049C344.908 321.049 336.039 312.078 336.039 301.405C336.039 290.733 344.908 281.762 356.246 281.762C367.585 281.762 376.454 290.733 376.454 301.405ZM386.454 301.405C386.454 317.777 372.929 331.049 356.246 331.049C339.563 331.049 326.039 317.777 326.039 301.405C326.039 285.034 339.563 271.762 356.246 271.762C372.929 271.762 386.454 285.034 386.454 301.405Z" fill="#F4CE19"/>
</svg>
