<svg width="300" height="140" viewBox="0 0 300 140" fill="none" xmlns="http://www.w3.org/2000/svg">
<g clip-path="url(#clip0_2656_187)">
<path d="M294.801 53.1002C285.501 41.1002 268.301 38.9002 256.301 48.2002C254.501 49.6002 252.801 51.3002 251.401 53.1002C247.901 58.0002 246.101 63.9002 246.201 69.9002C246.101 75.9002 247.901 81.8002 251.401 86.7002C260.701 98.7002 277.901 100.9 289.901 91.6002C291.701 90.2002 293.401 88.5002 294.801 86.7002C298.301 81.8002 300.101 75.9002 300.001 69.9002C300.101 63.9002 298.301 58.0002 294.801 53.1002ZM286.201 76.1002C284.201 82.0002 279.501 86.6002 273.101 86.7002C266.701 86.9002 262.001 82.0002 260.001 76.1002C258.601 72.0002 258.601 67.6002 260.001 63.5002C262.001 57.6002 266.701 53.0002 273.101 52.9002C279.601 52.7002 284.301 57.7002 286.201 63.5002C287.601 67.6002 287.601 72.1002 286.201 76.1002ZM89.001 95.8002C89.001 96.7002 88.301 97.4002 87.401 97.4002H78.401C77.501 97.4002 76.801 96.7002 76.801 95.8002V21.8002C76.801 20.9002 77.501 20.2002 78.401 20.2002H87.401C88.301 20.2002 89.001 20.9002 89.001 21.8002V95.8002ZM67.901 95.8002C67.901 96.7002 67.201 97.4002 66.301 97.4002H57.301C56.401 97.4002 55.701 96.7002 55.701 95.8002V21.8002C55.701 20.9002 56.401 20.2002 57.301 20.2002H66.301C67.201 20.2002 67.901 20.9002 67.901 21.8002V95.8002ZM244.301 45.6002V51.9002C244.401 52.8002 243.801 53.6002 242.901 53.8002C242.601 53.9002 242.401 53.8002 242.201 53.7002C232.001 51.6002 225.701 56.2002 225.701 65.5002V95.9002C225.701 96.8002 225.001 97.5002 224.101 97.5002H215.101C214.201 97.5002 213.501 96.8002 213.501 95.9002V64.9002C213.401 58.9002 215.801 53.3002 220.201 49.2002C224.601 44.9002 230.501 42.5002 236.701 42.5002C238.801 42.5002 240.901 42.7002 243.001 43.1002C244.101 43.5002 244.301 44.1002 244.301 45.7002V45.6002ZM205.801 69.8002C205.901 63.8002 204.101 57.9002 200.601 53.0002C191.301 41.0002 174.101 38.8002 162.101 48.1002C160.301 49.5002 158.601 51.2002 157.201 53.0002C150.201 63.1002 150.201 76.4002 157.201 86.5002C162.301 93.3002 170.401 97.3002 178.901 97.1002C184.401 97.1002 189.801 95.5002 194.301 92.4002V99.0002C194.301 108 186.401 109.6 181.401 109.9C177.901 110 174.501 109.8 171.001 109.3C169.601 109.1 168.601 109.3 168.601 110.8V118.8C168.701 119.6 169.301 120.2 170.001 120.1C181.701 121.1 189.501 120.9 195.401 117.5C199.601 115 202.601 111.1 204.001 106.5C205.101 102.9 205.601 99.2002 205.501 95.6002L205.801 69.8002ZM179.001 86.7002C172.501 86.7002 167.801 81.9002 165.901 76.1002C164.501 72.0002 164.501 67.6002 165.901 63.5002C167.901 57.6002 172.601 52.9002 179.001 52.9002C193.501 52.9002 194.001 67.7002 194.001 69.8002C194.001 71.9002 193.501 86.7002 179.001 86.7002ZM47.601 64.4002C47.601 57.2002 46.001 51.8002 42.601 48.1002C39.101 44.3002 32.201 42.5002 25.801 42.5002C19.301 42.4002 13.001 44.2002 7.50095 47.4002C7.20095 47.6002 7.00095 48.0002 7.00095 48.4002L7.50095 56.3002C7.70095 57.1002 8.40096 57.6002 9.10096 57.5002C9.40096 57.4002 9.60095 57.3002 9.80095 57.2002C17.701 52.3002 27.101 51.4002 31.901 53.9002C34.601 55.5002 36.201 58.4002 36.101 61.5002V62.7002H22.901C17.201 62.7002 0.000954531 64.8002 0.000954531 80.7002V80.9002C-0.299045 85.8002 1.80095 90.5002 5.60095 93.6002C9.70095 96.5002 14.601 97.9002 19.601 97.6002H46.101C47.001 97.6002 47.701 96.9002 47.701 96.0002L47.601 64.4002ZM35.901 87.6002H20.301C18.301 87.5002 16.301 86.8002 14.701 85.6002C13.001 84.4002 12.001 82.5002 12.101 80.4002C12.101 77.6002 14.001 71.9002 23.501 71.9002H35.901C35.901 72.1002 35.901 87.6002 35.901 87.6002ZM122.201 42.5002C106.201 42.5002 99.201 53.3002 96.901 62.3002C96.301 64.8002 95.901 67.3002 96.001 69.8002C95.901 75.8002 97.701 81.7002 101.201 86.6002C106.401 93.3002 114.401 97.2002 122.901 97.2002C131.601 97.5002 137.301 96.0002 141.801 93.5002C142.701 92.9002 143.101 91.8002 142.901 90.8002V83.8002C142.901 82.4002 142.001 81.7002 140.801 82.5002C135.601 85.8002 129.501 87.3002 123.401 86.7002C116.201 86.6002 110.201 81.1002 109.401 74.0002H145.001C145.801 74.0002 146.501 73.3002 146.501 72.5002C146.801 63.0002 144.001 42.5002 122.201 42.5002ZM109.401 64.5002C109.701 57.8002 115.401 52.6002 122.101 52.9002C122.201 52.9002 122.201 52.9002 122.301 52.9002C128.301 52.5002 133.401 57.1002 133.701 63.0002C133.801 63.5002 133.801 64.0002 133.701 64.5002H109.401Z" fill="#FC5B1F"/>
</g>
<defs>
<clipPath id="clip0_2656_187">
<rect width="300" height="140" fill="white"/>
</clipPath>
</defs>
</svg>
