<svg width="300" height="140" viewBox="0 0 300 140" fill="none" xmlns="http://www.w3.org/2000/svg">
<path fill-rule="evenodd" clip-rule="evenodd" d="M186.125 114.732C168.724 127.945 143.421 135 121.663 135C91.1575 135 63.6908 123.401 42.9146 104.102C41.2825 102.584 42.7436 100.517 44.7027 101.696C67.126 115.115 94.8507 123.182 123.487 123.182C142.803 123.182 164.05 119.073 183.587 110.546C186.539 109.257 189.005 112.533 186.119 114.735M193.374 106.209C191.153 103.278 178.673 104.827 173.026 105.512C171.316 105.728 171.055 104.194 172.594 103.093C182.555 95.8806 198.906 97.9629 200.817 100.378C202.728 102.794 200.322 119.659 190.958 127.704C189.518 128.938 188.15 128.281 188.789 126.643C190.889 121.245 195.606 109.149 193.374 106.209Z" fill="#FF9900"/>
<path fill-rule="evenodd" clip-rule="evenodd" d="M173.419 52.1832V45.1743C173.413 44.9397 173.454 44.7062 173.538 44.4881C173.623 44.27 173.749 44.0719 173.911 43.9059C174.072 43.7399 174.265 43.6095 174.477 43.5226C174.689 43.4357 174.916 43.3942 175.145 43.4005H205.662C206.64 43.4005 207.426 44.1255 207.426 45.1743V51.1744C207.414 52.1801 206.586 53.4974 205.128 55.5797L189.317 78.7965C195.198 78.6484 201.396 79.5492 206.724 82.6372C207.924 83.3344 208.224 84.3555 208.344 85.3642V92.8451C208.344 93.8631 207.246 95.06 206.094 94.443C196.704 89.3838 184.232 88.8285 173.851 94.4955C172.792 95.0878 171.682 93.9032 171.682 92.8852V85.7807C171.682 84.6393 171.694 82.6958 172.804 80.959L191.126 53.9416H175.211C174.232 53.9416 173.446 53.2321 173.446 52.1832M62.0857 95.9207H52.8032C51.9151 95.8528 51.2131 95.168 51.1441 94.295V45.2947C51.1441 44.3137 51.9421 43.5363 52.9322 43.5363H61.5907C62.4907 43.5764 63.2108 44.289 63.2768 45.1713V51.5755H63.4478C65.7069 45.3841 69.9522 42.4967 75.6705 42.4967C81.4819 42.4967 85.1121 45.3841 87.7253 51.5755C89.9754 45.3841 95.0757 42.4967 100.551 42.4967C104.442 42.4967 108.7 44.1471 111.298 47.8551C114.238 51.9765 113.638 57.9674 113.638 63.2178L113.617 94.1469C113.617 95.1279 112.819 95.9207 111.829 95.9207H102.528C101.628 95.8528 100.857 95.0878 100.857 94.1469V68.1413C100.857 66.0744 101.037 60.9165 100.596 58.9576C99.906 55.6691 97.8269 54.7406 95.1357 54.7406C92.8856 54.7406 90.5394 56.283 89.5854 58.7571C88.6313 61.2312 88.7243 65.3649 88.7243 68.1444V94.1191C88.7243 95.1001 87.9263 95.8929 86.9362 95.8929H77.6357C76.6966 95.8251 75.9646 95.06 75.9646 94.1191L75.9526 68.1444C75.9526 62.678 76.8286 54.6326 70.2312 54.6326C63.5588 54.6326 63.8198 62.4744 63.8198 68.1444V94.1191C63.8198 95.1001 63.0218 95.8929 62.0317 95.8929M233.702 42.5368C247.479 42.5368 254.937 54.7036 254.937 70.1712C254.937 85.1174 246.696 96.9726 233.702 96.9726C220.201 96.9726 212.806 84.8059 212.806 69.6467C212.806 54.392 220.264 42.4998 233.702 42.4998M233.78 52.504C226.94 52.504 226.505 62.0919 226.505 68.0673C226.505 74.0427 226.415 86.8388 233.699 86.8388C240.893 86.8388 241.235 76.526 241.235 70.2421C241.235 66.1084 241.064 61.1633 239.855 57.2424C238.811 53.8305 236.735 52.5009 233.783 52.5009M272.806 95.9207H263.56C262.66 95.8528 261.889 95.0878 261.889 94.1469L261.877 45.1342C261.955 44.2335 262.726 43.5363 263.665 43.5363H272.275C273.085 43.5764 273.751 44.1409 273.934 44.906V52.4022H274.105C276.704 45.7019 280.346 42.5059 286.76 42.5059C290.96 42.5059 294.987 44.0484 297.6 48.2808C300 52.1986 300 58.7941 300 63.5356V94.3844C299.895 95.2482 299.124 95.9269 298.212 95.9269H288.917C288.068 95.859 287.363 95.2173 287.273 94.3844V67.7711C287.273 62.4127 287.873 54.5678 281.462 54.5678C279.203 54.5678 277.127 56.1257 276.062 58.4856C274.756 61.478 274.585 64.461 274.585 67.765V94.1531C274.573 95.1341 273.763 95.9269 272.77 95.9269M149.088 72.4817C149.088 76.2021 149.178 79.2685 147.348 82.6063C145.872 85.2902 143.523 86.9437 140.921 86.9437C137.357 86.9437 135.266 84.1519 135.266 80.0274C135.266 71.8894 142.359 70.4118 149.082 70.4118V72.4787M158.443 95.751C157.827 96.3156 156.942 96.3557 156.252 95.9793C153.171 93.3479 152.61 92.1232 150.924 89.6152C145.83 94.9582 142.215 96.5562 135.617 96.5562C127.796 96.5562 121.72 91.6019 121.72 81.6778C121.72 73.9286 125.795 68.6534 131.621 66.0744C136.661 63.7916 143.7 63.3906 149.082 62.7582V61.5242C149.082 59.2538 149.253 56.5699 147.942 54.6079C146.82 52.8495 144.651 52.1246 142.731 52.1246C139.19 52.1246 136.04 53.9909 135.272 57.8625C135.116 58.7262 134.501 59.5684 133.652 59.6085L124.651 58.6152C123.895 58.4393 123.046 57.8131 123.271 56.61C125.336 45.381 135.212 42 144.033 42C148.551 42 154.455 43.234 158.019 46.7507C162.538 51.0881 162.106 56.8753 162.106 63.1746V78.053C162.106 82.5261 163.906 84.485 165.607 86.9067C166.195 87.7704 166.327 88.8008 165.568 89.4455L158.47 95.8127L158.458 95.7819M27.3616 72.5126C27.3616 76.233 27.4516 79.2993 25.6215 82.6372C24.1455 85.321 21.8113 86.9745 19.1952 86.9745C15.6309 86.9745 13.5548 84.1827 13.5548 80.0582C13.5548 71.9203 20.6472 70.4426 27.3556 70.4426V72.5095M36.7162 95.7819C36.1012 96.3464 35.2161 96.3865 34.5261 96.0102C31.4449 93.3787 30.9259 92.154 29.1978 89.646C24.1034 94.9891 20.4972 96.587 13.8908 96.587C6.08437 96.5901 0 91.6358 0 81.7148C0 73.9656 4.08625 68.6904 9.90059 66.1115C14.9409 63.8286 21.9793 63.4276 27.3616 62.7952V61.5612C27.3616 59.2908 27.5327 56.6069 26.2396 54.6449C25.0995 52.8866 22.9394 52.1616 21.0283 52.1616C17.4881 52.1616 14.3289 54.028 13.5278 57.8995C13.3718 58.7633 12.7568 59.6054 11.9227 59.6455L2.91018 58.6522C2.15413 58.4764 1.32008 57.8501 1.53009 56.647C3.60622 45.4181 13.4708 42.037 22.2913 42.037C26.8096 42.037 32.714 43.271 36.2782 46.7877C40.7964 51.1251 40.3644 56.9123 40.3644 63.2117V78.0901C40.3644 82.5631 42.1645 84.522 43.8656 86.9437C44.4657 87.8074 44.5977 88.8378 43.8356 89.4825L36.7552 95.8127L36.7252 95.7819" fill="black"/>
</svg>
