<svg width="238" height="140" viewBox="0 0 238 140" fill="none" xmlns="http://www.w3.org/2000/svg">
<g clip-path="url(#clip0_2656_289)">
<path d="M144.261 72.3657C134.144 72.717 127.821 74.6437 127.821 81.7723C127.821 86.3907 131.288 91.3547 140.029 91.3547C151.741 91.3547 158.011 84.5773 158.011 73.4197V72.1928L144.264 72.3685L144.261 72.3657ZM169.227 87.0877L169.611 97.0185H159.219C158.944 94.5053 158.835 91.995 158.835 89.5385C153.227 96.8995 146.515 99.0018 137.224 99.0018C123.477 99.0018 116.109 91.2895 116.109 82.3503C116.109 69.3793 126.117 64.8233 143.576 64.4153C148.331 64.302 153.664 64.302 158.064 64.302V63.0157C158.064 54.3683 152.837 50.8323 143.771 50.8323C137.061 50.8323 132.059 53.813 131.563 58.896H119.797C121.061 46.1602 133.653 42.9443 144.704 42.9443C158.037 42.9443 169.173 47.9678 169.173 62.8683V87.1132L169.227 87.0877Z" fill="#F3AE2A"/>
<path d="M47.5387 66.0589C47.0987 54.9579 39.5387 50.8099 31.4853 50.8099C22.7973 50.8099 15.8133 55.4849 14.6053 66.0589H47.5387ZM14.384 73.9469C14.9893 84.7561 21.9733 91.1226 31.5947 91.1226C38.248 91.1226 44.1867 88.2892 46.1653 81.9511H57.712C55.4587 94.6869 42.6987 99.0077 31.7573 99.0077C11.7973 99.0077 3 87.3231 3 71.6094C3 54.2581 12.128 42.8652 31.9787 42.8652C47.76 42.8652 59.3067 51.6287 59.3067 70.7934V73.9497L14.384 73.9469Z" fill="#E2353E"/>
<path d="M87.9566 90.8868C98.3486 90.8868 105.442 82.9422 105.442 70.9628C105.442 58.9835 98.3486 51.0388 87.9566 51.0388C77.6179 51.0388 70.4713 58.9835 70.4713 70.9628C70.4713 82.9422 77.6179 90.8868 87.9566 90.8868ZM59.3033 22H70.4633V51.8548C75.9619 44.9018 83.4953 42.9157 90.9166 42.9157C103.397 42.9157 117.202 51.8548 117.202 71.1357C117.202 87.2857 106.205 99.0638 90.6953 99.0638C82.5566 99.0638 74.9699 95.967 70.2419 89.8328C70.2419 92.2865 70.1353 94.7402 69.858 97.0777H58.8633L59.2473 84.8093V22H59.3033Z" fill="#1067CF"/>
<path d="M226.14 44.8486L191.55 117.002H179.017L188.969 96.9621L162.961 44.8486H176.049L195.185 85.5693L214.265 44.8486H226.14Z" fill="#87B62B"/>
</g>
<defs>
<clipPath id="clip0_2656_289">
<rect width="238" height="140" fill="white"/>
</clipPath>
</defs>
</svg>
