<svg width="300" height="140" viewBox="0 0 300 140" fill="none" xmlns="http://www.w3.org/2000/svg">
<g clip-path="url(#clip0_2656_296)">
<path fill-rule="evenodd" clip-rule="evenodd" d="M284 30C275.129 30 268 37.1287 268 46C268 54.8713 275.129 62 284 62C292.871 62 300 54.8713 300 46C300 36.8119 292.871 30 284 30Z" fill="url(#paint0_linear_2656_296)"/>
<path d="M284.424 69.3636C283.856 71.4961 283.598 73.2918 283.03 74.5264L282.772 75.1437C282.514 76.6588 281.378 77.5567 279.984 77.5567H279.158C278.59 77.5567 278.022 77.2761 277.506 76.6588C277.248 76.0415 276.938 75.4242 276.938 74.8631L277.764 68.8025C277.764 68.5219 278.022 67.9046 278.332 67.5679C270.226 65.4355 264.392 57.5791 264.392 48.1515C264.392 46.6364 264.651 45.4018 264.651 43.8867H241.779C240.385 43.8867 239.249 42.9888 238.991 41.4736L237.855 36.3109C237.288 34.5152 235.894 33 233.932 33H227.22C225.826 33 225 34.2346 225 35.413C225 36.9282 226.136 37.826 227.22 37.826H230.834C232.228 37.826 233.364 38.7239 233.622 40.2391L242.554 79.6891C243.122 81.4849 244.515 83 246.477 83H283.03C284.992 83 286.386 81.7654 286.954 79.6891L290 66.3333C288.038 67.2312 286.076 67.5679 284.114 67.8485C284.734 68.7464 284.734 69.0269 284.424 69.3636ZM243.38 58.4209C243.122 56.9057 242.554 55.3906 242.244 54.156L241.986 52.9214C241.728 52.3042 241.986 51.6869 242.244 51.1257C242.502 50.5084 243.38 50.2278 243.896 50.2278H246.426C247.82 50.2278 248.956 51.1257 248.956 52.6409L249.782 58.0842C249.782 58.7015 249.782 59.3188 249.214 59.8799C248.956 60.4972 248.078 60.7778 247.562 60.7778H246.168C244.774 60.5533 243.689 59.6554 243.38 58.4209ZM252.053 76.6027C251.795 77.22 250.917 77.5006 250.401 77.5006H250.143C248.749 77.5006 247.613 76.6027 247.355 75.0876L247.097 74.4703C246.839 72.9551 246.271 71.1594 245.703 69.0269C245.445 68.4097 245.703 67.7924 245.961 67.2312C246.219 66.6139 247.097 66.3333 247.613 66.3333H249.007C250.401 66.3333 251.537 67.2312 251.795 68.7464L252.621 74.807C252.621 75.4243 252.621 76.3221 252.053 76.6027ZM262.379 75.4242C262.379 76.6588 261.553 77.5567 260.417 77.5567C259.281 77.5567 258.197 76.6588 258.197 75.4242L257.371 69.0269C257.371 68.4097 257.371 67.7924 257.939 67.2312C258.197 66.6139 259.075 66.3333 259.591 66.3333H260.417C261.811 66.3333 262.947 67.5679 262.947 69.0831V75.4804H262.379V75.4242ZM262.379 58.1403C262.379 59.6554 261.243 60.89 259.849 60.89H257.939C256.545 60.89 255.409 59.9922 255.151 58.477L254.583 52.697C254.583 52.0797 254.583 51.4624 255.151 50.9012C255.719 50.284 256.287 50.0034 256.803 50.0034H260.159C261.553 50.0034 262.379 51.2379 262.379 52.7531V58.1403ZM273.014 69.0269L272.188 75.4242C271.93 76.6588 271.052 77.5567 269.968 77.5567C268.884 77.5567 268.006 76.6588 268.006 75.4242V69.0269C268.006 67.5118 269.142 66.2772 270.536 66.2772H271.362C271.93 66.2772 272.498 66.5578 273.014 67.1751V69.0269Z" fill="url(#paint1_linear_2656_296)"/>
<path fill-rule="evenodd" clip-rule="evenodd" d="M283.815 33L287.839 40.7936L297 42.1871L290.434 48.329L291.864 57L283.868 53.0774L275.872 57L277.301 48.329L271 42.1871L279.896 40.7936L283.815 33Z" fill="white"/>
<path d="M249 105C252.866 105 256 102.09 256 98.5C256 94.9101 252.866 92 249 92C245.134 92 242 94.9101 242 98.5C242 102.09 245.134 105 249 105Z" fill="url(#paint2_linear_2656_296)"/>
<path d="M281.5 105C285.09 105 288 102.09 288 98.5C288 94.9101 285.09 92 281.5 92C277.91 92 275 94.9101 275 98.5C275 102.09 277.91 105 281.5 105Z" fill="url(#paint3_linear_2656_296)"/>
<path fill-rule="evenodd" clip-rule="evenodd" d="M76.2046 91.8771C73.1513 94.4954 68.3903 95.4697 61.9216 95.4697H52.7101C51.3128 95.4697 50.1743 95.4697 48.5183 95.4697C47.1211 95.4697 45.7238 95.1652 44.3266 94.7999C42.9293 94.4954 41.5321 93.8256 40.3936 93.4603C38.9963 92.7905 37.8578 91.8163 37.0298 90.842C36.2018 89.8678 35.3738 88.2237 34.8046 86.5797C34.2353 84.9357 33.9766 82.9872 33.9766 80.308V42.7998H42.3601V80.0036C42.3601 83.9614 45.4133 85.9099 51.8821 85.9099H63.3706C69.5288 85.9099 72.5821 83.9614 72.5821 80.0036V42.7998H80.9656V80.6734C80.7068 85.6055 79.3096 89.5633 76.2046 91.8771Z" fill="#4A4A4A"/>
<path fill-rule="evenodd" clip-rule="evenodd" d="M144.257 96.1386V61.553L126.041 93.2158C125.472 94.1901 124.644 95.1643 123.816 95.8341C122.988 96.5039 122.16 96.8084 121.022 96.8084C119.055 96.8084 117.399 95.8341 116.002 93.5203L97.7859 61.2486V96.1386H89.4023V48.4008C89.4023 46.4523 89.9716 45.1127 90.7996 44.1385C91.6276 43.1643 92.7661 42.4945 94.1634 42.4945C96.1299 42.4945 97.7858 43.4687 98.9243 45.1127L121.591 83.2908L143.999 45.4172C145.137 43.4687 146.534 42.4336 148.501 42.4336C149.898 42.4336 151.037 43.1034 151.865 44.0776C152.693 45.0519 153.262 46.6959 153.262 48.7053V95.7732H144.309V96.1386H144.257Z" fill="#4A4A4A"/>
<path fill-rule="evenodd" clip-rule="evenodd" d="M161.023 95.8337V42.8594H169.407V95.8337H161.023Z" fill="#4A4A4A"/>
<path d="M226.489 96.1381L219.502 81.6463H193.213L186.486 96.1381H176.395L201.597 46.4519C202.735 44.1381 204.391 42.8594 206.358 42.8594C208.324 42.8594 209.98 44.199 211.119 46.4519L235.752 96.1381H226.489ZM206.358 56.0116L198.233 71.843H214.483L206.358 56.0116Z" fill="#4A4A4A"/>
<path fill-rule="evenodd" clip-rule="evenodd" d="M25.543 72.0879C25.543 88.2237 20.5233 95.1043 11.5705 97.4181C2.87653 99.3666 0.0820312 99.3666 0.0820312 99.3666V88.5282C3.44578 88.2237 8.77603 87.554 12.1398 86.2144C15.193 84.8748 17.47 81.2823 17.47 72.0879L17.7288 52.664V42.7998H26.1123L25.543 72.0879Z" fill="#4A4A4A"/>
</g>
<defs>
<linearGradient id="paint0_linear_2656_296" x1="268.142" y1="45.9695" x2="300" y2="45.9695" gradientUnits="userSpaceOnUse">
<stop stop-color="#EB712A"/>
<stop offset="0.2311" stop-color="#EF8528"/>
<stop offset="0.4715" stop-color="#F29426"/>
<stop offset="0.6242" stop-color="#F39A24"/>
</linearGradient>
<linearGradient id="paint1_linear_2656_296" x1="225.203" y1="57.9678" x2="290.485" y2="57.9678" gradientUnits="userSpaceOnUse">
<stop stop-color="#343434"/>
<stop offset="0.5455" stop-color="#696968"/>
<stop offset="1" stop-color="#696968"/>
</linearGradient>
<linearGradient id="paint2_linear_2656_296" x1="242.004" y1="98.4924" x2="256.018" y2="98.4924" gradientUnits="userSpaceOnUse">
<stop stop-color="#343434"/>
<stop offset="0.5455" stop-color="#696968"/>
<stop offset="1" stop-color="#696968"/>
</linearGradient>
<linearGradient id="paint3_linear_2656_296" x1="274.917" y1="98.4924" x2="287.924" y2="98.4924" gradientUnits="userSpaceOnUse">
<stop stop-color="#343434"/>
<stop offset="0.5455" stop-color="#696968"/>
<stop offset="1" stop-color="#696968"/>
</linearGradient>
<clipPath id="clip0_2656_296">
<rect width="300" height="140" fill="white"/>
</clipPath>
</defs>
</svg>
