<svg width="573" height="447" viewBox="0 0 573 447" fill="none" xmlns="http://www.w3.org/2000/svg">
<path d="M418.649 373.573L415.795 367.733L415.795 367.733L418.649 373.573ZM464.354 351.234L461.5 345.394L461.5 345.394L464.354 351.234ZM464.412 342.73L467.346 336.93L467.346 336.93L464.412 342.73ZM418.673 319.59L415.739 325.39L415.739 325.39L418.673 319.59ZM382.57 340.067C378.98 340.067 376.07 342.977 376.07 346.567C376.07 350.157 378.98 353.067 382.57 353.067V340.067ZM353.541 353.067C357.131 353.067 360.041 350.157 360.041 346.567C360.041 342.977 357.131 340.067 353.541 340.067V353.067ZM146.594 104.296C143.004 104.296 140.094 107.207 140.094 110.796C140.094 114.386 143.004 117.296 146.594 117.296V104.296ZM225.717 117.296C229.307 117.296 232.217 114.386 232.217 110.796C232.217 107.207 229.307 104.296 225.717 104.296V117.296ZM106.329 288.899C102.739 288.899 99.8288 291.809 99.8288 295.399C99.8288 298.989 102.739 301.899 106.329 301.899V288.899ZM246.789 301.899C250.379 301.899 253.289 298.989 253.289 295.399C253.289 291.809 250.379 288.899 246.789 288.899V301.899ZM106.329 327.15C102.739 327.15 99.8288 330.06 99.8288 333.65C99.8288 337.24 102.739 340.15 106.329 340.15V327.15ZM166.258 340.15C169.848 340.15 172.758 337.24 172.758 333.65C172.758 330.06 169.848 327.15 166.258 327.15V340.15ZM106.329 354.868C102.739 354.868 99.8288 357.779 99.8288 361.368C99.8288 364.958 102.739 367.868 106.329 367.868V354.868ZM166.258 367.868C169.848 367.868 172.758 364.958 172.758 361.368C172.758 357.779 169.848 354.868 166.258 354.868V367.868ZM285.236 140.01C285.236 143.6 288.146 146.51 291.736 146.51C295.326 146.51 298.236 143.6 298.236 140.01H285.236ZM298.236 401.049C298.236 397.459 295.326 394.549 291.736 394.549C288.146 394.549 285.236 397.459 285.236 401.049H298.236ZM111.479 74.5C115.069 74.5 117.979 71.5899 117.979 68C117.979 64.4101 115.069 61.5 111.479 61.5V74.5ZM153.032 61.5C149.442 61.5 146.532 64.4101 146.532 68C146.532 71.5899 149.442 74.5 153.032 74.5V61.5ZM260.396 154.091C263.986 154.091 266.896 151.181 266.896 147.591C266.896 144.001 263.986 141.091 260.396 141.091V154.091ZM225.717 278.214C229.307 278.214 232.217 275.304 232.217 271.714C232.217 268.124 229.307 265.214 225.717 265.214V278.214ZM206.452 223.787L211.772 220.052L211.772 220.052L206.452 223.787ZM376.589 225.629L371.512 221.57L371.512 221.57L376.589 225.629ZM376.874 220.167L382.242 216.502L382.242 216.502L376.874 220.167ZM206.545 218.448L201.258 214.667L201.258 214.667L206.545 218.448ZM184.108 323.827V369.307H197.108V323.827H184.108ZM195.29 380.545H416.613V367.545H195.29V380.545ZM421.504 379.413L467.209 357.073L461.5 345.394L415.795 367.733L421.504 379.413ZM467.346 336.93L421.608 313.79L415.739 325.39L461.478 348.53L467.346 336.93ZM416.579 312.589H195.29V325.589H416.579V312.589ZM421.608 313.79C420.05 313.002 418.328 312.589 416.579 312.589V325.589C416.284 325.589 415.996 325.52 415.739 325.39L421.608 313.79ZM467.209 357.073C475.536 353.003 475.612 341.112 467.346 336.93L461.477 348.53C460.803 348.189 460.496 347.483 460.5 346.956C460.504 346.429 460.819 345.726 461.5 345.394L467.209 357.073ZM416.613 380.545C418.31 380.545 419.982 380.157 421.504 379.413L415.795 367.733C416.047 367.61 416.327 367.545 416.613 367.545V380.545ZM184.108 369.307C184.108 375.441 189.042 380.545 195.29 380.545V367.545C196.366 367.545 197.108 368.406 197.108 369.307H184.108ZM197.108 323.827C197.108 324.728 196.366 325.589 195.29 325.589V312.589C189.042 312.589 184.108 317.693 184.108 323.827H197.108ZM228.118 318.142V375.466H241.118V318.142H228.118ZM382.57 353.067H410.662V340.067H382.57V353.067ZM353.541 340.067H234.618V353.067H353.541V340.067ZM406.751 322.563V369.684H419.751V322.563H406.751ZM146.594 117.296H225.717V104.296H146.594V117.296ZM106.329 301.899H246.789V288.899H106.329V301.899ZM106.329 340.15H166.258V327.15H106.329V340.15ZM106.329 367.868H166.258V354.868H106.329V367.868ZM277.69 422.5H81.046V435.5H277.69V422.5ZM73.5 414.787V82.2126H60.5V414.787H73.5ZM285.236 82.2126V140.01H298.236V82.2126H285.236ZM298.236 414.787V401.049H285.236V414.787H298.236ZM81.046 422.5C76.9505 422.5 73.5 419.119 73.5 414.787H60.5C60.5 426.154 69.6267 435.5 81.046 435.5V422.5ZM277.69 435.5C289.109 435.5 298.236 426.154 298.236 414.787H285.236C285.236 419.119 281.785 422.5 277.69 422.5V435.5ZM277.69 74.5C281.785 74.5 285.236 77.8806 285.236 82.2126H298.236C298.236 70.8458 289.109 61.5 277.69 61.5V74.5ZM81.046 61.5C69.6267 61.5 60.5 70.8458 60.5 82.2126H73.5C73.5 77.8806 76.9505 74.5 81.046 74.5V61.5ZM81.046 74.5H111.479V61.5H81.046V74.5ZM104.18 257.223V161.798H91.1804V257.223H104.18ZM225.717 265.214H112.473V278.214H225.717V265.214ZM91.1804 257.223C91.1804 268.844 101.339 278.214 112.473 278.214V265.214C108.12 265.214 104.18 261.272 104.18 257.223H91.1804ZM112.473 141.091C101.51 141.091 91.1804 150.014 91.1804 161.798H104.18C104.18 157.912 107.949 154.091 112.473 154.091V141.091ZM320.816 220.741C320.816 237.372 307.512 250.723 291.262 250.723V263.723C314.836 263.723 333.816 244.407 333.816 220.741H320.816ZM291.262 250.723C275.012 250.723 261.708 237.372 261.708 220.741H248.708C248.708 244.407 267.688 263.723 291.262 263.723V250.723ZM261.708 220.741C261.708 204.11 275.012 190.76 291.262 190.76V177.76C267.688 177.76 248.708 197.076 248.708 220.741H261.708ZM291.262 190.76C307.512 190.76 320.816 204.11 320.816 220.741H333.816C333.816 197.076 314.836 177.76 291.262 177.76V190.76ZM285.169 181.995C280.248 195.238 280.952 209.206 289.114 218.8C297.465 228.617 311.691 231.657 328.998 227.02L325.633 214.463C311.157 218.342 302.949 215 299.016 210.376C294.893 205.53 293.462 196.999 297.355 186.524L285.169 181.995ZM201.133 227.522C215.409 247.857 241.404 271.901 273.751 279.062C306.877 286.396 344.914 275.665 381.666 229.687L371.512 221.57C337.179 264.521 303.872 272.416 276.561 266.37C248.473 260.151 224.942 238.81 211.772 220.052L201.133 227.522ZM382.242 216.502C368.061 195.731 340.712 170.943 307.695 163.485C291.023 159.72 272.923 160.391 254.599 168.251C236.325 176.089 218.262 190.886 201.258 214.667L211.833 222.228C227.798 199.9 244.118 186.892 259.724 180.198C275.279 173.526 290.555 172.941 304.831 176.166C333.712 182.689 358.559 204.87 371.505 223.832L382.242 216.502ZM381.666 229.687C384.56 226.068 385.106 220.698 382.242 216.502L371.505 223.832C370.902 222.949 371.12 222.061 371.512 221.57L381.666 229.687ZM211.772 220.052C212.354 220.88 212.191 221.728 211.833 222.228L201.258 214.667C198.64 218.328 198.318 223.514 201.133 227.522L211.772 220.052ZM153.032 74.5H277.69V61.5H153.032V74.5ZM112.473 154.091H260.396V141.091H112.473V154.091ZM431.952 332.542V345.846H444.952V332.542H431.952ZM431.952 345.846V359.151H444.952V345.846H431.952Z" fill="#45474B"/>
<path d="M372.886 116.858L376.495 113.398L376.495 113.398L372.886 116.858ZM448.513 116.858L444.904 113.398L444.904 113.398L448.513 116.858ZM385.964 126.714L390.836 125.59L390.322 123.363L388.302 122.295L385.964 126.714ZM435.435 126.714L433.097 122.295L431.077 123.363L430.563 125.59L435.435 126.714ZM448.513 49.6149L444.904 53.0753L448.513 49.6149ZM457.029 61.6342L461.495 59.3857L457.029 61.6342ZM344.057 118.419C341.687 119.836 340.914 122.906 342.332 125.276C343.749 127.646 346.819 128.419 349.189 127.001L344.057 118.419ZM360.477 120.251C362.847 118.834 363.62 115.763 362.202 113.393C360.785 111.023 357.715 110.251 355.345 111.668L360.477 120.251ZM472.21 127.001C474.58 128.419 477.651 127.646 479.068 125.276C480.485 122.906 479.713 119.836 477.343 118.419L472.21 127.001ZM466.055 111.668C463.685 110.251 460.615 111.023 459.197 113.393C457.78 115.763 458.552 118.834 460.922 120.251L466.055 111.668ZM484.353 99.4384C487.091 99.7957 489.601 97.8656 489.958 95.1273C490.315 92.3891 488.385 89.8797 485.647 89.5224L484.353 99.4384ZM472.498 87.8067C469.76 87.4494 467.25 89.3796 466.893 92.1178C466.536 94.856 468.466 97.3654 471.204 97.7227L472.498 87.8067ZM484.144 63.3372C486.772 62.4899 488.215 59.6723 487.368 57.0442C486.521 54.416 483.703 52.9723 481.075 53.8197L484.144 63.3372ZM468.487 57.8784C465.859 58.7257 464.415 61.5432 465.262 64.1714C466.11 66.7996 468.927 68.2433 471.555 67.3959L468.487 57.8784ZM469.897 35.9505C471.945 34.099 472.105 30.9372 470.254 28.8884C468.402 26.8396 465.241 26.6797 463.192 28.5312L469.897 35.9505ZM453.493 37.2964C451.444 39.1478 451.284 42.3096 453.135 44.3584C454.987 46.4072 458.149 46.5671 460.197 44.7157L453.493 37.2964ZM446.973 16.4828C448.256 14.0378 447.315 11.0152 444.87 9.7317C442.425 8.44817 439.402 9.38972 438.119 11.8347L446.973 16.4828ZM432.107 23.2864C430.823 25.7314 431.765 28.754 434.21 30.0375C436.655 31.321 439.678 30.3795 440.961 27.9345L432.107 23.2864ZM335.353 89.5224C332.615 89.8797 330.685 92.3891 331.042 95.1273C331.399 97.8656 333.909 99.7957 336.647 99.4384L335.353 89.5224ZM349.796 97.7227C352.534 97.3654 354.464 94.856 354.107 92.1178C353.75 89.3796 351.24 87.4494 348.502 87.8067L349.796 97.7227ZM339.925 53.8197C337.297 52.9723 334.479 54.416 333.632 57.0442C332.785 59.6723 334.228 62.4899 336.856 63.3372L339.925 53.8197ZM349.444 67.3959C352.073 68.2433 354.89 66.7996 355.738 64.1714C356.585 61.5433 355.141 58.7257 352.513 57.8784L349.444 67.3959ZM357.808 28.5312C355.759 26.6797 352.598 26.8396 350.746 28.8884C348.895 30.9372 349.055 34.099 351.103 35.9505L357.808 28.5312ZM360.803 44.7157C362.851 46.5671 366.013 46.4072 367.865 44.3584C369.716 42.3096 369.556 39.1478 367.507 37.2964L360.803 44.7157ZM382.881 11.8347C381.598 9.38972 378.575 8.44817 376.13 9.7317C373.685 11.0152 372.744 14.0378 374.027 16.4828L382.881 11.8347ZM380.039 27.9345C381.322 30.3795 384.345 31.321 386.79 30.0375C389.235 28.754 390.177 25.7314 388.893 23.2864L380.039 27.9345ZM405.315 19.8404C405.311 22.6018 407.548 24.8429 410.309 24.846C413.07 24.8491 415.311 22.6131 415.315 19.8517L405.315 19.8404ZM415.329 7.00564C415.332 4.24422 413.096 2.00312 410.335 2C407.573 1.99689 405.332 4.23294 405.329 6.99436L415.329 7.00564ZM394.08 166.422V174.791H404.08V166.422H394.08ZM402.394 183H419.338V173H402.394V183ZM427.652 174.791V166.422H417.652V174.791H427.652ZM419.338 158.213H402.394V168.213H419.338V158.213ZM427.652 166.422C427.652 161.737 423.776 158.213 419.338 158.213V168.213C418.56 168.213 417.652 167.562 417.652 166.422H427.652ZM419.338 183C423.776 183 427.652 179.476 427.652 174.791H417.652C417.652 173.651 418.56 173 419.338 173V183ZM394.08 174.791C394.08 179.476 397.955 183 402.394 183V173C403.171 173 404.08 173.651 404.08 174.791H394.08ZM404.08 166.422C404.08 167.562 403.171 168.213 402.394 168.213V158.213C397.955 158.213 394.08 161.737 394.08 166.422H404.08ZM387.785 139.604H433.614V129.604H387.785V139.604ZM431.928 137.813V159.683H441.928V137.813H431.928ZM433.614 157.892H387.785V167.892H433.614V157.892ZM389.471 159.683V137.813H379.471V159.683H389.471ZM387.785 157.892C388.563 157.892 389.471 158.543 389.471 159.683H379.471C379.471 164.368 383.347 167.892 387.785 167.892V157.892ZM431.928 159.683C431.928 158.543 432.836 157.892 433.614 157.892V167.892C438.052 167.892 441.928 164.368 441.928 159.683H431.928ZM433.614 139.604C432.836 139.604 431.928 138.953 431.928 137.813H441.928C441.928 133.128 438.052 129.604 433.614 129.604V139.604ZM387.785 129.604C383.347 129.604 379.471 133.128 379.471 137.813H389.471C389.471 138.953 388.563 139.604 387.785 139.604V129.604ZM364.239 83.2367C364.239 58.7969 384.862 38.6679 410.7 38.6679V28.6679C379.696 28.6679 354.239 52.9243 354.239 83.2367H364.239ZM376.495 113.398C368.863 105.438 364.239 94.8472 364.239 83.2367H354.239C354.239 97.5768 359.966 110.608 369.277 120.319L376.495 113.398ZM457.16 83.2367C457.16 94.8472 452.536 105.438 444.904 113.398L452.122 120.319C461.433 110.608 467.16 97.5768 467.16 83.2367H457.16ZM388.302 122.295C383.873 119.952 379.888 116.937 376.495 113.398L369.277 120.319C373.412 124.631 378.256 128.293 383.627 131.134L388.302 122.295ZM444.904 113.398C441.511 116.937 437.526 119.952 433.097 122.295L437.773 131.134C443.144 128.293 447.988 124.631 452.123 120.319L444.904 113.398ZM381.093 127.839L382.913 135.728L392.657 133.479L390.836 125.59L381.093 127.839ZM430.563 125.59L428.742 133.479L438.486 135.728L440.307 127.839L430.563 125.59ZM433.614 129.604H410.7V139.604H433.614V129.604ZM410.7 129.604H387.785V139.604H410.7V129.604ZM415.7 134.604V116.858H405.7V134.604H415.7ZM410.7 38.6679C424.262 38.6679 436.428 44.2342 444.904 53.0753L452.122 46.1546C441.795 35.3835 427.038 28.6679 410.7 28.6679V38.6679ZM444.904 53.0753C447.983 56.2863 450.571 59.9255 452.564 63.8827L461.495 59.3857C459.046 54.521 455.875 50.0682 452.122 46.1546L444.904 53.0753ZM452.564 63.8827C455.51 69.7352 457.16 76.2964 457.16 83.2367H467.16C467.16 74.6891 465.124 66.592 461.495 59.3857L452.564 63.8827ZM419.312 92.8151V106.959H429.312V92.8151H419.312ZM402.752 106.959V92.8151H392.752V106.959H402.752ZM410.7 114.626C406.042 114.626 402.752 111.215 402.752 106.959H392.752C392.752 116.906 400.689 124.626 410.7 124.626V114.626ZM419.312 106.959C419.312 110.898 415.691 114.626 410.7 114.626V124.626C420.377 124.626 429.312 117.222 429.312 106.959H419.312ZM411.032 84.957C415.758 84.957 419.312 88.6262 419.312 92.8151H429.312C429.312 82.8014 420.974 74.957 411.032 74.957V84.957ZM411.032 74.957C401.089 74.957 392.752 82.8014 392.752 92.8151H402.752C402.752 88.6262 406.305 84.957 411.032 84.957V74.957ZM349.189 127.001L360.477 120.251L355.345 111.668L344.057 118.419L349.189 127.001ZM477.343 118.419L466.055 111.668L460.922 120.251L472.21 127.001L477.343 118.419ZM485.647 89.5224L472.498 87.8067L471.204 97.7227L484.353 99.4384L485.647 89.5224ZM481.075 53.8197L468.487 57.8784L471.555 67.3959L484.144 63.3372L481.075 53.8197ZM463.192 28.5312L453.493 37.2964L460.197 44.7157L469.897 35.9505L463.192 28.5312ZM438.119 11.8347L432.107 23.2864L440.961 27.9345L446.973 16.4828L438.119 11.8347ZM336.647 99.4384L349.796 97.7227L348.502 87.8067L335.353 89.5224L336.647 99.4384ZM336.856 63.3372L349.444 67.3959L352.513 57.8784L339.925 53.8197L336.856 63.3372ZM351.103 35.9505L360.803 44.7157L367.507 37.2964L357.808 28.5312L351.103 35.9505ZM374.027 16.4828L380.039 27.9345L388.893 23.2864L382.881 11.8347L374.027 16.4828ZM415.315 19.8517L415.329 7.00564L405.329 6.99436L405.315 19.8404L415.315 19.8517Z" fill="#FFD600"/>
</svg>
