<svg width="739" height="739" viewBox="0 0 739 739" fill="none" xmlns="http://www.w3.org/2000/svg">
<path d="M497.927 529.008L494.448 521.804L494.448 521.804L497.927 529.008ZM539.639 508.859L536.16 501.655L536.159 501.655L539.639 508.859ZM539.692 501.189L543.269 494.034L543.269 494.034L539.692 501.189ZM497.949 480.318L494.371 487.474L494.371 487.474L497.949 480.318ZM465 496.65C460.581 496.65 457 500.232 457 504.65C457 509.068 460.581 512.65 465 512.65V496.65ZM438.507 512.65C442.926 512.65 446.507 509.068 446.507 504.65C446.507 500.232 442.926 496.65 438.507 496.65V512.65ZM249.64 284C245.222 284 241.64 287.582 241.64 292C241.64 296.418 245.222 300 249.64 300V284ZM321.851 300C326.269 300 329.851 296.418 329.851 292C329.851 287.582 326.269 284 321.851 284V300ZM212.893 450.5C208.475 450.5 204.893 454.082 204.893 458.5C204.893 462.918 208.475 466.5 212.893 466.5V450.5ZM341.081 466.5C345.5 466.5 349.081 462.918 349.081 458.5C349.081 454.082 345.5 450.5 341.081 450.5V466.5ZM212.893 485C208.475 485 204.893 488.582 204.893 493C204.893 497.418 208.475 501 212.893 501V485ZM267.587 501C272.005 501 275.587 497.418 275.587 493C275.587 488.582 272.005 485 267.587 485V501ZM212.893 510C208.475 510 204.893 513.582 204.893 518C204.893 522.418 208.475 526 212.893 526V510ZM267.587 526C272.005 526 275.587 522.418 275.587 518C275.587 513.582 272.005 510 267.587 510V526ZM374.102 318.349C374.102 322.768 377.683 326.349 382.102 326.349C386.52 326.349 390.102 322.768 390.102 318.349H374.102ZM390.102 553.789C390.102 549.371 386.52 545.789 382.102 545.789C377.683 545.789 374.102 549.371 374.102 553.789H390.102ZM217.593 261.4C222.011 261.4 225.593 257.819 225.593 253.4C225.593 248.982 222.011 245.4 217.593 245.4V261.4ZM255.515 245.4C251.097 245.4 247.515 248.982 247.515 253.4C247.515 257.819 251.097 261.4 255.515 261.4V245.4ZM353.5 333.186C357.918 333.186 361.5 329.604 361.5 325.186C361.5 320.768 357.918 317.186 353.5 317.186V333.186ZM321.851 445.137C326.269 445.137 329.851 441.556 329.851 437.137C329.851 432.719 326.269 429.137 321.851 429.137V445.137ZM304.269 393.91L310.791 389.277L310.791 389.277L304.269 393.91ZM459.541 395.572L453.321 390.541L453.321 390.541L459.541 395.572ZM459.801 390.646L466.383 386.099L466.383 386.099L459.801 390.646ZM304.354 389.094L297.872 384.405L297.872 384.405L304.354 389.094ZM281.809 484.14V525.16H297.809V484.14H281.809ZM294.081 537.433H496.069V521.433H294.081V537.433ZM501.407 536.211L543.119 516.063L536.159 501.655L494.448 521.804L501.407 536.211ZM543.269 494.034L501.527 473.163L494.371 487.474L536.114 508.345L543.269 494.034ZM496.038 471.867H294.081V487.867H496.038V471.867ZM501.527 473.163C499.822 472.311 497.943 471.867 496.038 471.867V487.867C495.459 487.867 494.889 487.732 494.371 487.474L501.527 473.163ZM543.119 516.063C552.295 511.63 552.384 498.592 543.269 494.034L536.114 508.345C533.346 506.961 533.373 503.001 536.16 501.655L543.119 516.063ZM496.069 537.433C497.918 537.433 499.742 537.016 501.407 536.211L494.448 521.804C494.953 521.56 495.507 521.433 496.069 521.433V537.433ZM281.809 525.16C281.809 531.939 287.303 537.433 294.081 537.433V521.433C296.14 521.433 297.809 523.102 297.809 525.16H281.809ZM297.809 484.14C297.809 486.198 296.14 487.867 294.081 487.867V471.867C287.303 471.867 281.809 477.362 281.809 484.14H297.809ZM321.974 479.012V530.715H337.974V479.012H321.974ZM465 512.65H490.637V496.65H465V512.65ZM438.507 496.65H329.974V512.65H438.507V496.65ZM485 483V525.5H501V483H485ZM249.64 300H321.851V284H249.64V300ZM212.893 466.5H341.081V450.5H212.893V466.5ZM212.893 501H267.587V485H212.893V501ZM212.893 526H267.587V510H212.893V526ZM369.283 570.999H189.819V586.999H369.283V570.999ZM185 566.18V266.219H169V566.18H185ZM374.102 266.219V318.349H390.102V266.219H374.102ZM390.102 566.18V553.789H374.102V566.18H390.102ZM189.819 570.999C187.157 570.999 185 568.842 185 566.18H169C169 577.678 178.321 586.999 189.819 586.999V570.999ZM369.283 586.999C380.781 586.999 390.102 577.678 390.102 566.18H374.102C374.102 568.842 371.944 570.999 369.283 570.999V586.999ZM369.283 261.4C371.944 261.4 374.102 263.558 374.102 266.219H390.102C390.102 254.721 380.781 245.4 369.283 245.4V261.4ZM189.819 245.4C178.321 245.4 169 254.721 169 266.219H185C185 263.558 187.157 261.4 189.819 261.4V245.4ZM189.819 261.4H217.593V245.4H189.819V261.4ZM213 424.067V338H197V424.067H213ZM321.851 429.137H218.5V445.137H321.851V429.137ZM197 424.067C197 435.881 207.351 445.137 218.5 445.137V429.137C215.516 429.137 213 426.387 213 424.067H197ZM218.5 317.186C207.562 317.186 197 325.987 197 338H213C213 335.879 215.304 333.186 218.5 333.186V317.186ZM406.573 391.163C406.573 404.917 395.423 416.067 381.669 416.067V432.067C404.26 432.067 422.573 413.754 422.573 391.163H406.573ZM381.669 416.067C367.915 416.067 356.765 404.917 356.765 391.163H340.765C340.765 413.754 359.079 432.067 381.669 432.067V416.067ZM356.765 391.163C356.765 377.409 367.915 366.259 381.669 366.259V350.259C359.079 350.259 340.765 368.573 340.765 391.163H356.765ZM381.669 366.259C395.423 366.259 406.573 377.409 406.573 391.163H422.573C422.573 368.573 404.26 350.259 381.669 350.259V366.259ZM374.181 355.443C369.51 367.865 370.036 381.391 378.164 390.833C386.494 400.51 400.409 403.19 416.621 398.897L412.525 383.43C399.731 386.818 393.171 383.742 390.29 380.394C387.206 376.812 385.784 370.045 389.157 361.075L374.181 355.443ZM297.747 398.544C310.966 417.151 335.085 439.254 365.261 445.856C396.366 452.662 431.818 442.569 465.761 400.603L453.321 390.541C422.391 428.782 392.731 435.488 368.681 430.226C343.701 424.761 322.621 405.929 310.791 389.277L297.747 398.544ZM466.383 386.099C453.231 367.06 427.87 344.301 397.103 337.433C381.523 333.955 364.575 334.573 347.426 341.843C330.333 349.088 313.565 362.715 297.872 384.405L310.835 393.784C325.231 373.887 339.844 362.435 353.67 356.574C367.44 350.737 380.951 350.221 393.617 353.049C419.34 358.79 441.614 378.394 453.219 395.193L466.383 386.099ZM465.761 400.603C468.955 396.655 469.59 390.741 466.383 386.099L453.219 395.193C452.076 393.538 452.411 391.666 453.321 390.541L465.761 400.603ZM310.791 389.277C311.899 390.838 311.666 392.635 310.835 393.784L297.872 384.405C294.979 388.404 294.601 394.115 297.747 398.544L310.791 389.277ZM255.515 261.4H369.283V245.4H255.515V261.4ZM218.5 333.186H353.5V317.186H218.5V333.186ZM508 492V504H524V492H508ZM508 504V516H524V504H508Z" fill="#45474B"/>
<path d="M450.528 245.031L455.291 240.609L455.291 240.609L450.528 245.031ZM547.861 245.031L543.097 240.609L543.097 240.609L547.861 245.031ZM467.36 258.132L473.703 256.714L473.061 253.84L470.476 252.428L467.36 258.132ZM531.029 258.132L527.913 252.428L525.328 253.84L524.686 256.714L531.029 258.132ZM547.861 155.646L543.097 160.069L543.097 160.069L547.861 155.646ZM558.822 171.623L552.979 174.471L558.822 171.623ZM413.311 247.279C410.257 249.166 409.31 253.171 411.196 256.225C413.083 259.279 417.088 260.226 420.142 258.34L413.311 247.279ZM434.67 249.366C437.724 247.48 438.671 243.475 436.785 240.42C434.898 237.366 430.893 236.42 427.839 238.306L434.67 249.366ZM578.247 258.34C581.301 260.226 585.306 259.279 587.193 256.225C589.079 253.171 588.132 249.166 585.078 247.279L578.247 258.34ZM570.55 238.306C567.496 236.42 563.491 237.366 561.604 240.42C559.718 243.475 560.664 247.48 563.719 249.366L570.55 238.306ZM593.952 221.726C597.51 222.206 600.782 219.71 601.262 216.153C601.741 212.595 599.246 209.322 595.688 208.843L593.952 221.726ZM578.765 206.562C575.208 206.083 571.935 208.578 571.456 212.136C570.976 215.693 573.471 218.966 577.029 219.446L578.765 206.562ZM593.797 173.728C597.203 172.594 599.044 168.914 597.91 165.508C596.776 162.102 593.096 160.26 589.69 161.394L593.797 173.728ZM573.488 166.789C570.082 167.924 568.241 171.604 569.375 175.01C570.509 178.416 574.19 180.258 577.596 179.123L573.488 166.789ZM575.502 137.304C578.127 134.854 578.269 130.741 575.819 128.117C573.37 125.492 569.257 125.35 566.632 127.8L575.502 137.304ZM554.149 139.451C551.525 141.901 551.383 146.014 553.832 148.638C556.282 151.262 560.395 151.404 563.019 148.955L554.149 139.451ZM545.975 111.461C547.602 108.261 546.326 104.348 543.126 102.721C539.926 101.095 536.013 102.37 534.386 105.571L545.975 111.461ZM526.649 120.793C525.023 123.993 526.298 127.906 529.498 129.533C532.699 131.159 536.611 129.884 538.238 126.683L526.649 120.793ZM402.187 208.843C398.629 209.322 396.133 212.595 396.613 216.153C397.092 219.71 400.365 222.206 403.923 221.726L402.187 208.843ZM420.846 219.446C424.403 218.966 426.899 215.693 426.419 212.136C425.94 208.578 422.667 206.083 419.109 206.562L420.846 219.446ZM408.185 161.394C404.779 160.26 401.099 162.102 399.965 165.508C398.83 168.914 400.672 172.594 404.078 173.728L408.185 161.394ZM420.279 179.123C423.685 180.258 427.366 178.416 428.5 175.01C429.634 171.604 427.792 167.924 424.386 166.789L420.279 179.123ZM431.243 127.8C428.618 125.35 424.505 125.492 422.056 128.117C419.606 130.741 419.748 134.854 422.372 137.304L431.243 127.8ZM434.856 148.955C437.48 151.404 441.593 151.262 444.042 148.638C446.492 146.014 446.35 141.901 443.726 139.451L434.856 148.955ZM463.488 105.571C461.862 102.37 457.949 101.095 454.749 102.721C451.549 104.348 450.273 108.261 451.9 111.461L463.488 105.571ZM459.637 126.683C461.263 129.884 465.176 131.159 468.376 129.533C471.577 127.906 472.852 123.993 471.226 120.793L459.637 126.683ZM492.199 116.069C492.195 119.659 495.102 122.572 498.692 122.576C502.281 122.58 505.195 119.673 505.199 116.083L492.199 116.069ZM505.217 99.0071C505.221 95.4173 502.314 92.5039 498.725 92.5C495.135 92.4961 492.221 95.403 492.217 98.9929L505.217 99.0071ZM477.739 310.914V322.039H490.739V310.914H477.739ZM488.504 332.804H510.312V319.804H488.504V332.804ZM521.077 322.039V310.914H508.077V322.039H521.077ZM510.312 300.149H488.504V313.149H510.312V300.149ZM521.077 310.914C521.077 304.968 516.257 300.149 510.312 300.149V313.149C509.078 313.149 508.077 312.148 508.077 310.914H521.077ZM510.312 332.804C516.257 332.804 521.077 327.984 521.077 322.039H508.077C508.077 320.805 509.078 319.804 510.312 319.804V332.804ZM477.739 322.039C477.739 327.984 482.559 332.804 488.504 332.804V319.804C489.739 319.804 490.739 320.805 490.739 322.039H477.739ZM490.739 310.914C490.739 312.148 489.739 313.149 488.504 313.149V300.149C482.559 300.149 477.739 304.968 477.739 310.914H490.739ZM469.703 275.119H528.686V262.119H469.703V275.119ZM526.451 272.885V301.956H539.451V272.885H526.451ZM528.686 299.721H469.703V312.721H528.686V299.721ZM471.938 301.956V272.885H458.938V301.956H471.938ZM469.703 299.721C470.938 299.721 471.938 300.722 471.938 301.956H458.938C458.938 307.902 463.758 312.721 469.703 312.721V299.721ZM526.451 301.956C526.451 300.722 527.451 299.721 528.686 299.721V312.721C534.631 312.721 539.451 307.902 539.451 301.956H526.451ZM528.686 275.119C527.451 275.119 526.451 274.119 526.451 272.885H539.451C539.451 266.939 534.631 262.119 528.686 262.119V275.119ZM469.703 262.119C463.758 262.119 458.938 266.939 458.938 272.885H471.938C471.938 274.119 470.938 275.119 469.703 275.119V262.119ZM439.464 200.339C439.464 167.57 466.174 140.949 499.194 140.949V127.949C459.058 127.949 426.464 160.327 426.464 200.339H439.464ZM455.291 240.609C445.458 230.015 439.464 215.878 439.464 200.339H426.464C426.464 219.295 433.792 236.557 445.764 249.453L455.291 240.609ZM558.925 200.339C558.925 215.878 552.931 230.015 543.097 240.609L552.625 249.453C564.597 236.557 571.925 219.295 571.925 200.339H558.925ZM470.476 252.428C464.788 249.32 459.662 245.317 455.291 240.609L445.764 249.453C451.081 255.181 457.318 260.053 464.243 263.836L470.476 252.428ZM543.097 240.609C538.727 245.317 533.601 249.32 527.913 252.428L534.146 263.836C541.071 260.053 547.308 255.181 552.625 249.453L543.097 240.609ZM461.016 259.55L463.36 270.037L476.047 267.202L473.703 256.714L461.016 259.55ZM524.686 256.714L522.342 267.202L535.029 270.037L537.373 259.55L524.686 256.714ZM528.686 262.119H499.194V275.119H528.686V262.119ZM499.194 262.119H469.703V275.119H499.194V262.119ZM505.694 268.619V245.031H492.694V268.619H505.694ZM499.194 140.949C516.559 140.949 532.179 148.307 543.097 160.069L552.625 151.224C539.342 136.916 520.312 127.949 499.194 127.949V140.949ZM543.097 160.069C547.063 164.341 550.404 169.19 552.979 174.471L564.664 168.775C561.522 162.33 557.451 156.422 552.625 151.224L543.097 160.069ZM552.979 174.471C556.787 182.284 558.925 191.054 558.925 200.339H571.925C571.925 189.036 569.318 178.321 564.664 168.775L552.979 174.471ZM510.214 213.071V231.872H523.214V213.071H510.214ZM489.03 231.872V213.071H476.03V231.872H489.03ZM499.194 242.209C493.433 242.209 489.03 237.81 489.03 231.872H476.03C476.03 244.813 486.077 255.209 499.194 255.209V242.209ZM510.214 231.872C510.214 237.391 505.384 242.209 499.194 242.209V255.209C511.884 255.209 523.214 245.232 523.214 231.872H510.214ZM499.622 202.479C505.471 202.479 510.214 207.221 510.214 213.071H523.214C523.214 200.042 512.651 189.479 499.622 189.479V202.479ZM499.622 189.479C486.592 189.479 476.03 200.042 476.03 213.071H489.03C489.03 207.221 493.772 202.479 499.622 202.479V189.479ZM420.142 258.34L434.67 249.366L427.839 238.306L413.311 247.279L420.142 258.34ZM585.078 247.279L570.55 238.306L563.719 249.366L578.247 258.34L585.078 247.279ZM595.688 208.843L578.765 206.562L577.029 219.446L593.952 221.726L595.688 208.843ZM589.69 161.394L573.488 166.789L577.596 179.123L593.797 173.728L589.69 161.394ZM566.632 127.8L554.149 139.451L563.019 148.955L575.502 137.304L566.632 127.8ZM534.386 105.571L526.649 120.793L538.238 126.683L545.975 111.461L534.386 105.571ZM403.923 221.726L420.846 219.446L419.109 206.562L402.187 208.843L403.923 221.726ZM404.078 173.728L420.279 179.123L424.386 166.789L408.185 161.394L404.078 173.728ZM422.372 137.304L434.856 148.955L443.726 139.451L431.243 127.8L422.372 137.304ZM451.9 111.461L459.637 126.683L471.226 120.793L463.488 105.571L451.9 111.461ZM505.199 116.083L505.217 99.0071L492.217 98.9929L492.199 116.069L505.199 116.083Z" fill="#FFD600"/>
</svg>
