<svg width="739" height="739" viewBox="0 0 739 739" fill="none" xmlns="http://www.w3.org/2000/svg">
<path d="M187.189 307.662L177.774 312.575C177.043 312.956 177.061 314.008 177.805 314.363L187.218 318.865C187.402 318.953 187.554 319.095 187.655 319.271L192.632 327.981C193.016 328.652 193.984 328.652 194.368 327.981L199.332 319.293C199.441 319.103 199.609 318.954 199.811 318.868L210.417 314.381C211.217 314.043 211.235 312.916 210.447 312.552L199.81 307.643C199.609 307.55 199.445 307.393 199.342 307.197L193.962 296.851C193.575 296.106 192.498 296.141 192.16 296.909L187.641 307.179C187.55 307.387 187.39 307.557 187.189 307.662Z" stroke="#F4CE19" stroke-width="8" stroke-linecap="round"/>
<path d="M238.572 331.991L224.587 339.978C223.901 340.37 223.919 341.365 224.619 341.732L238.597 349.049C238.753 349.131 238.885 349.252 238.979 349.402L247.595 363.064C248.001 363.709 248.95 363.68 249.317 363.012L256.764 349.453C256.864 349.271 257.018 349.125 257.204 349.035L272.285 341.716C273.01 341.364 273.042 340.343 272.341 339.946L258.269 331.993C258.094 331.894 257.952 331.744 257.864 331.563L249.39 314.312C249.025 313.569 247.968 313.565 247.598 314.306L238.971 331.569C238.883 331.746 238.744 331.893 238.572 331.991Z" stroke="#F4CE19" stroke-width="8" stroke-linecap="round"/>
<path fill-rule="evenodd" clip-rule="evenodd" d="M438.595 210.737C437.84 205.605 441.818 201 447.004 201H573.264C578.252 201 582.167 205.274 581.732 210.243L557.682 484.5H464.828L462.58 467.641C462.106 464.083 458.836 461.583 455.278 462.057C451.72 462.531 449.22 465.801 449.694 469.359L452.116 487.52C452.877 493.233 457.751 497.5 463.515 497.5H469.817L470.731 530.103C471.057 541.737 480.583 551 492.222 551H529.137C541.011 551 550.637 541.374 550.637 529.5V497.5H559.056C565.018 497.5 569.992 492.944 570.512 487.005L594.682 211.378C595.784 198.811 585.879 188 573.264 188H447.004C433.885 188 423.824 199.648 425.733 212.628L433.206 263.446C433.729 266.997 437.031 269.453 440.583 268.931C444.134 268.409 446.59 265.106 446.068 261.554L438.595 210.737ZM483.207 511.25L482.822 497.5H537.637V511.25H527.637C524.047 511.25 521.137 514.16 521.137 517.75C521.137 521.34 524.047 524.25 527.637 524.25H537.637V529.5C537.637 534.194 533.831 538 529.137 538H492.222C487.621 538 483.855 534.338 483.726 529.738L483.572 524.25H511.637C515.227 524.25 518.137 521.34 518.137 517.75C518.137 514.16 515.227 511.25 511.637 511.25H483.207Z" fill="#45474B"/>
<path d="M452.637 219.5C449.047 219.5 446.137 222.41 446.137 226C446.137 229.59 449.047 232.5 452.637 232.5H570.137C573.727 232.5 576.637 229.59 576.637 226C576.637 222.41 573.727 219.5 570.137 219.5H452.637Z" fill="#45474B"/>
<path fill-rule="evenodd" clip-rule="evenodd" d="M461.637 304.5C461.637 296.216 468.353 289.5 476.637 289.5H542.637C550.921 289.5 557.637 296.216 557.637 304.5V324.5C557.637 332.784 550.921 339.5 542.637 339.5H476.637C468.353 339.5 461.637 332.784 461.637 324.5V304.5ZM476.637 302.5H542.637C543.742 302.5 544.637 303.395 544.637 304.5V324.5C544.637 325.605 543.742 326.5 542.637 326.5H476.637C475.532 326.5 474.637 325.605 474.637 324.5V304.5C474.637 303.395 475.532 302.5 476.637 302.5Z" fill="#45474B"/>
<path fill-rule="evenodd" clip-rule="evenodd" d="M479.637 367.5C479.637 359.216 486.353 352.5 494.637 352.5H525.637C533.921 352.5 540.637 359.216 540.637 367.5C540.637 375.784 533.921 382.5 525.637 382.5H494.637C486.353 382.5 479.637 375.784 479.637 367.5ZM494.637 362.5H525.637C528.398 362.5 530.637 364.739 530.637 367.5C530.637 370.261 528.398 372.5 525.637 372.5H494.637C491.876 372.5 489.637 370.261 489.637 367.5C489.637 364.739 491.876 362.5 494.637 362.5Z" fill="#45474B"/>
<path fill-rule="evenodd" clip-rule="evenodd" d="M321 286H313.5V335.5H426.097L426.902 286H345C341.686 286 338.5 283.314 338.5 280C338.5 276.686 341.686 274 345 274H427.918C434.063 274 439.016 279.035 438.917 285.179L438.079 336.679C437.982 342.683 433.086 347.5 427.081 347.5H423V356H425C436.598 356 445.5 365.402 445.5 377V412.5C445.5 415.814 442.814 418.5 439.5 418.5C436.186 418.5 433.5 415.814 433.5 412.5V406.5H324C320.686 406.5 318 403.814 318 400.5C318 397.186 320.686 394.5 324 394.5H433.5V377C433.5 372.029 429.971 368 425 368H319C314.029 368 310 372.029 310 377V386.5C310 389.814 307.314 392.5 304 392.5C300.686 392.5 298 389.814 298 386.5V377C298 366.77 305.315 358.248 315 356.38V347.5H312.5C306.425 347.5 301.5 342.575 301.5 336.5V285C301.5 278.925 306.425 274 312.5 274H321C324.314 274 327 276.686 327 280C327 283.314 324.314 286 321 286ZM327 347.5H411V356H327V347.5Z" fill="#45474B"/>
<path d="M330.5 295.5C330.5 292.186 327.814 289.5 324.5 289.5C321.186 289.5 318.5 292.186 318.5 295.5V325.5C318.5 328.814 321.186 331.5 324.5 331.5C327.814 331.5 330.5 328.814 330.5 325.5V295.5Z" fill="#45474B"/>
<path d="M348.5 295.5C348.5 292.186 345.814 289.5 342.5 289.5C339.186 289.5 336.5 292.186 336.5 295.5V325.5C336.5 328.814 339.186 331.5 342.5 331.5C345.814 331.5 348.5 328.814 348.5 325.5V295.5Z" fill="#45474B"/>
<path d="M366.5 295.5C366.5 292.186 363.814 289.5 360.5 289.5C357.186 289.5 354.5 292.186 354.5 295.5V325.5C354.5 328.814 357.186 331.5 360.5 331.5C363.814 331.5 366.5 328.814 366.5 325.5V295.5Z" fill="#45474B"/>
<path d="M384.5 295.5C384.5 292.186 381.814 289.5 378.5 289.5C375.186 289.5 372.5 292.186 372.5 295.5V325.5C372.5 328.814 375.186 331.5 378.5 331.5C381.814 331.5 384.5 328.814 384.5 325.5V295.5Z" fill="#45474B"/>
<path d="M402.5 295.5C402.5 292.186 399.814 289.5 396.5 289.5C393.186 289.5 390.5 292.186 390.5 295.5V325.5C390.5 328.814 393.186 331.5 396.5 331.5C399.814 331.5 402.5 328.814 402.5 325.5V295.5Z" fill="#45474B"/>
<path d="M420.5 295.5C420.5 292.186 417.814 289.5 414.5 289.5C411.186 289.5 408.5 292.186 408.5 295.5V325.5C408.5 328.814 411.186 331.5 414.5 331.5C417.814 331.5 420.5 328.814 420.5 325.5V295.5Z" fill="#45474B"/>
<path d="M333 416C329.686 416 327 418.686 327 422C327 425.314 329.686 428 333 428H411.5V455.5H333C329.686 455.5 327 458.186 327 461.5C327 464.814 329.686 467.5 333 467.5H412.5C418.575 467.5 423.5 462.575 423.5 456.5V427C423.5 420.925 418.575 416 412.5 416H333Z" fill="#45474B"/>
<path d="M445.5 436C445.5 432.686 442.814 429.5 439.5 429.5C436.186 429.5 433.5 432.686 433.5 436V498.5H332C328.686 498.5 326 501.186 326 504.5C326 507.814 328.686 510.5 332 510.5H433.5V517C433.5 521.971 429.471 526 424.5 526H318.5C315.186 526 312.5 528.686 312.5 532C312.5 535.314 315.186 538 318.5 538H424.5C436.098 538 445.5 528.598 445.5 517V436Z" fill="#45474B"/>
<path d="M335 478C331.686 478 329 480.686 329 484C329 487.314 331.686 490 335 490H357.5C360.814 490 363.5 487.314 363.5 484C363.5 480.686 360.814 478 357.5 478H335Z" fill="#45474B"/>
<path d="M372 478C368.686 478 366 480.686 366 484C366 487.314 368.686 490 372 490H422C425.314 490 428 487.314 428 484C428 480.686 425.314 478 422 478H372Z" fill="#45474B"/>
<path d="M243 430C243 412.964 256.82 399 273.75 399C290.733 399 304.5 412.767 304.5 429.75V455.5H279C275.686 455.5 273 458.186 273 461.5C273 464.814 275.686 467.5 279 467.5H304.5V473.5H279C275.686 473.5 273 476.186 273 479.5C273 482.814 275.686 485.5 279 485.5H304.5V497.5C304.5 516.278 289.278 531.5 270.5 531.5H255C251.686 531.5 249 534.186 249 537.5C249 540.814 251.686 543.5 255 543.5H270.5C295.905 543.5 316.5 522.905 316.5 497.5V429.75C316.5 406.14 297.36 387 273.75 387C250.087 387 231 406.443 231 430C231 433.314 233.686 436 237 436C240.314 436 243 433.314 243 430Z" fill="#45474B"/>
<path fill-rule="evenodd" clip-rule="evenodd" d="M204 551C236.585 551 263 524.585 263 492C263 459.415 236.585 433 204 433C171.415 433 145 459.415 145 492C145 524.585 171.415 551 204 551ZM204 539C211.467 539 218.528 537.259 224.798 534.16L201.968 513.443C199.514 511.217 199.33 507.422 201.557 504.968C203.783 502.514 207.578 502.33 210.032 504.557L235.064 527.271C236.661 525.864 238.161 524.35 239.554 522.741L170.129 459.415C168.228 461.391 166.498 463.533 164.963 465.817L192.967 490.499C195.453 492.69 195.692 496.481 193.501 498.967C191.31 501.453 187.519 501.692 185.033 499.501L159.458 476.961C157.864 481.682 157 486.74 157 492C157 517.957 178.043 539 204 539ZM179.607 451.818C186.718 447.492 195.068 445 204 445C229.957 445 251 466.043 251 492C251 499.392 249.293 506.386 246.252 512.609L179.607 451.818Z" fill="#45474B"/>
</svg>
