<svg width="739" height="739" viewBox="0 0 739 739" fill="none" xmlns="http://www.w3.org/2000/svg">
<path d="M228.101 370.109C220.268 357.996 205.054 342.506 215.601 316.118C223.201 297.104 255.018 286.855 273.182 313.753C273.596 314.366 274.501 314.365 274.913 313.751C292.972 286.826 321.46 296.172 329.55 315.08C337.546 333.77 330.386 347.005 322.552 359.118M247.051 386.114L272.058 401.897C272.363 402.089 272.744 402.098 273.057 401.921L278.051 399.093" stroke="#FFD600" stroke-width="10" stroke-linecap="round"/>
<path d="M441 239.5L458.078 211.037C461.239 205.769 467.812 203.392 472.562 207.287C475.233 209.477 477.432 212.037 478 214.5C479.14 219.44 479.919 232.595 479.565 239.899C479.537 240.491 480.015 240.984 480.607 240.966L514.818 239.919C521.587 239.712 526.6 246.15 524.74 252.661L514.608 288.121C512.768 294.56 506.883 299 500.185 299H441M441 239.5V299M441 239.5V237C441 234.239 438.761 232 436 232H416C413.239 232 411 234.239 411 237V301.5C411 304.261 413.239 306.5 416 306.5H436C438.761 306.5 441 304.261 441 301.5V299" stroke="#45474B" stroke-width="10" stroke-linecap="round"/>
<path d="M277 426.804L245.924 426.5C245.653 426.5 245.394 426.61 245.205 426.804L216.218 456.726C215.593 457.372 214.5 456.929 214.5 456.031V426.046C214.5 425.476 214.025 425.021 213.455 425.047L196.671 425.798C188.132 426.181 181 419.361 181 410.813V286.5C181 278.216 187.716 271.5 196 271.5H367C375.284 271.5 382 278.216 382 286.5V357M400 332.046L494.076 332.5C494.347 332.5 494.606 332.61 494.795 332.804L523.782 362.726C524.407 363.372 525.5 362.929 525.5 362.031V332.046C525.5 331.476 525.975 331.021 526.545 331.047L543.329 331.798C551.868 332.181 559 325.361 559 316.813V201C559 192.716 552.284 186 544 186H509M358 255V201C358 192.716 364.716 186 373 186H484M430.795 521.304L459.782 551.226C460.407 551.872 461.5 551.429 461.5 550.531V520.546C461.5 519.976 461.975 519.521 462.545 519.547L479.329 520.298C487.868 520.681 495 513.861 495 505.313V389.5C495 381.216 488.284 374.5 480 374.5H309C300.716 374.5 294 381.216 294 389.5V506C294 514.284 300.716 521 309 521H430.076C430.347 521 430.606 521.11 430.795 521.304Z" stroke="#45474B" stroke-width="12" stroke-linecap="round"/>
<path d="M358 448C358 455.732 351.732 462 344 462C336.268 462 330 455.732 330 448C330 440.268 336.268 434 344 434C351.732 434 358 440.268 358 448ZM407 448C407 455.732 400.732 462 393 462C385.268 462 379 455.732 379 448C379 440.268 385.268 434 393 434C400.732 434 407 440.268 407 448ZM456 448C456 455.732 449.732 462 442 462C434.268 462 428 455.732 428 448C428 440.268 434.268 434 442 434C449.732 434 456 440.268 456 448Z" stroke="#45474B" stroke-width="12"/>
</svg>
