<svg width="573" height="447" viewBox="0 0 573 447" fill="none" xmlns="http://www.w3.org/2000/svg">
<path d="M121.828 224.687C112.71 210.562 95.0003 192.499 107.278 161.729C116.124 139.557 153.16 127.606 174.304 158.971C174.785 159.686 175.838 159.685 176.318 158.969C197.339 127.572 230.5 138.469 239.917 160.518C249.225 182.312 240.889 197.745 231.771 211.87M143.886 243.35L172.995 261.754C173.35 261.978 173.793 261.989 174.157 261.782L179.97 258.484" stroke="#FFD600" stroke-width="10" stroke-linecap="round"/>
<path d="M372.921 72.7281L393.689 38.0535C396.849 32.7776 403.38 30.4225 408.305 34.1043C412.003 36.868 415.234 40.2959 415.989 43.576C417.326 49.3786 418.236 64.8984 417.802 73.3771C417.772 73.9688 418.25 74.4614 418.842 74.4433L461.097 73.1475C467.864 72.94 472.877 79.3752 471.02 85.8855L458.089 131.224C456.251 137.667 450.364 142.11 443.664 142.11H372.921M372.921 72.7281V142.11M372.921 72.7281V68.9825C372.921 66.2211 370.682 63.9825 367.921 63.9825H343C340.239 63.9825 338 66.2211 338 68.9825V145.856C338 148.617 340.239 150.856 343 150.856H367.921C370.682 150.856 372.921 148.617 372.921 145.856V142.11" stroke="#45474B" stroke-width="10" stroke-linecap="round"/>
<path d="M168.603 290.798L130.21 290.443C129.875 290.443 129.555 290.571 129.322 290.798L93.0854 326.103C92.4518 326.721 91.3876 326.272 91.3876 325.387V289.913C91.3876 289.249 90.8002 288.719 90.0969 288.748L69.3607 289.625C58.8111 290.071 50 282.118 50 272.151V127.191C50 117.531 58.2969 109.7 68.5317 109.7H279.794C290.028 109.7 298.325 117.531 298.325 127.191V212.202M320.563 180.301L436.79 180.831C437.125 180.831 437.445 180.959 437.678 181.186L473.915 216.492C474.548 217.109 475.612 216.66 475.612 215.775V180.301C475.612 179.637 476.2 179.107 476.903 179.137L497.639 180.013C508.189 180.459 517 172.506 517 162.539V27.4912C517 17.8311 508.703 10 498.468 10H455.227M268.675 90.4597V27.4912C268.675 17.8311 276.972 10 287.206 10H424.341M358.609 403.04L394.846 438.346C395.479 438.963 396.544 438.514 396.544 437.63V402.156C396.544 401.491 397.131 400.961 397.834 400.991L418.571 401.867C429.12 402.313 437.931 394.361 437.931 384.393V249.345C437.931 239.685 429.634 231.854 419.399 231.854H208.138C197.903 231.854 189.606 239.685 189.606 249.345V385.194C189.606 394.854 197.903 402.685 208.138 402.685H357.721C358.056 402.685 358.376 402.813 358.609 403.04Z" stroke="#45474B" stroke-width="12" stroke-linecap="round"/>
<path d="M274.022 315.513C274.022 325.09 266.275 332.835 256.741 332.835C247.208 332.835 239.461 325.09 239.461 315.513C239.461 305.937 247.208 298.191 256.741 298.191C266.275 298.191 274.022 305.937 274.022 315.513ZM331.059 315.513C331.059 325.09 323.312 332.835 313.778 332.835C304.245 332.835 296.498 325.09 296.498 315.513C296.498 305.937 304.245 298.191 313.778 298.191C323.312 298.191 331.059 305.937 331.059 315.513ZM388.096 315.513C388.096 325.09 380.349 332.835 370.815 332.835C361.282 332.835 353.535 325.09 353.535 315.513C353.535 305.937 361.282 298.191 370.815 298.191C380.349 298.191 388.096 305.937 388.096 315.513Z" stroke="#45474B" stroke-width="12"/>
</svg>
