<svg width="739" height="739" viewBox="0 0 739 739" fill="none" xmlns="http://www.w3.org/2000/svg">
<path d="M329.163 487.385H293.646C291.449 487.385 289.51 488.818 288.866 490.918L262.003 578.403C260.069 584.701 254.252 589 247.664 589H195.038C184.735 589 177.499 578.851 180.858 569.111L314.293 182.111C316.379 176.06 322.074 172 328.473 172H411.731C418.092 172 423.76 176.011 425.877 182.008L438.563 217.959M366.267 487.385H367.11M402.528 487.385H441.418C443.614 487.385 445.553 488.818 446.198 490.918L473.061 578.403C474.994 584.701 480.812 589 487.4 589H548.297C558.646 589 565.886 578.768 562.442 569.008L476.314 324.94M418.884 423.888L313.914 426.493C310.456 426.579 307.958 423.212 309.042 419.927L360.783 263.216C362.283 258.673 368.694 258.629 370.257 263.152L423.486 417.257C424.591 420.455 422.267 423.804 418.884 423.888Z" stroke="#45474B" stroke-width="16" stroke-linecap="round"/>
<path d="M482.948 217V257.172M482.948 297V257.172M482.948 257.172H443M482.948 257.172H523.5" stroke="#FFD600" stroke-width="16" stroke-linecap="round"/>
</svg>
