<?xml version="1.0" encoding="utf-8"?>
<!-- Generator: Adobe Illustrator 26.4.1, SVG Export Plug-In . SVG Version: 6.00 Build 0)  -->
<svg version="1.1" id="logo" xmlns="http://www.w3.org/2000/svg" xmlns:xlink="http://www.w3.org/1999/xlink" x="0px" y="0px"
	 viewBox="0 0 575.7 99.9" style="enable-background:new 0 0 575.7 99.9;" xml:space="preserve">
<style type="text/css">
	.st0{fill:#45474B;}
	.st1{fill:#F4CE19;}
</style>
<path id="add" class="st0" d="M70.8,32.6v54.7H54.3v-5.1c-3.6,4.2-9,6.7-16.3,6.7c-14.3,0-26.2-12.6-26.2-28.9S23.7,31.1,38,31.1
	c7.3,0,12.7,2.5,16.3,6.7v-5.2C54.3,32.6,70.8,32.6,70.8,32.6z M54.3,60c0-8.2-5.5-13.4-13-13.4s-13,5.1-13,13.4s5.5,13.4,13,13.4
	S54.3,68.2,54.3,60z M163.2,53.7v33.6h-16.4V55.1c0-5.5-2.6-9-7.9-9c-5.5,0-8.5,3.8-8.5,10.3v30.9H114V55.1c0-5.5-2.6-9-7.9-9
	c-5.5,0-8.5,3.8-8.5,10.3v30.9H81.1V32.6h16.4v5c2.5-3.7,7.3-6.6,14.7-6.6c6.5,0,11.3,2.6,14.3,7.2c3.1-4.4,8.1-7.2,15.9-7.2
	C155,31,163.2,40,163.2,53.7z M229,32.6v54.7h-16.4v-5.1c-3.6,4.2-9,6.7-16.3,6.7c-14.3,0-26.2-12.6-26.2-28.9s11.8-28.9,26.2-28.9
	c7.3,0,12.7,2.5,16.3,6.7v-5.2C212.6,32.6,229,32.6,229,32.6z M212.6,60c0-8.2-5.5-13.4-13-13.4s-13,5.2-13,13.3s5.5,13.3,13,13.3
	S212.6,68.2,212.6,60z M261.1,48.3v19.4c0,4.7,4,5.2,11.3,4.7v14.9c-21.5,2.2-27.7-4.3-27.7-19.6V48.3h-8.8V32.6h8.8V22.4l16.4-4.9
	v15.2h11.3v15.8L261.1,48.3L261.1,48.3z M315.4,31.7v18.6C308.6,49.2,299,52,299,62.8v24.7h-16.4V32.8H299v9.7
	C301.2,35.2,308.5,31.7,315.4,31.7z M377.8,32.6v54.7h-16.4v-5.1c-3.6,4.2-9,6.7-16.3,6.7c-14.3,0-26.2-12.6-26.2-28.9
	s11.8-28.9,26.2-28.9c7.3,0,12.7,2.5,16.3,6.7v-5.2C361.4,32.6,377.8,32.6,377.8,32.6z M361.4,60c0-8.2-5.5-13.4-13-13.4
	c-7.5,0-13,5.2-13,13.3s5.5,13.3,13,13.3C355.9,73.3,361.4,68.2,361.4,60z M443.6,11.1v76.3h-16.4v-5.1c-3.6,4.2-9,6.7-16.3,6.7
	c-14.3,0-26.2-12.6-26.2-28.9s11.8-28.9,26.2-28.9c7.3,0,12.7,2.5,16.3,6.7V15.9L443.6,11.1z M427.2,60c0-8.2-5.5-13.4-13-13.4
	c-7.5,0-13,5.2-13,13.3s5.5,13.3,13,13.3C421.7,73.3,427.2,68.2,427.2,60z M481,74.2c4.5,0,8.3-1.8,10.5-4.2l13.1,7.6
	c-5.4,7.4-13.5,11.3-23.9,11.3c-18.7,0-30.3-12.6-30.3-28.9S462.3,31,479.6,31c16,0,27.8,12.4,27.8,28.9c0,2.3-0.2,4.5-0.7,6.6
	h-38.9C470,72.2,475,74.2,481,74.2z M491.1,54.3c-1.8-6.3-6.7-8.6-11.6-8.6c-6.2,0-10.4,3.1-11.9,8.7
	C467.6,54.3,491.1,54.3,491.1,54.3z"/>
<path id="amatrade" class="st1" d="M504.6,23.6h59.2l-45.7,53.8c0,0,4.8-17.5,1.1-31C515.3,32.4,504.6,23.6,504.6,23.6z"/>
</svg>
