<svg width="215" height="140" viewBox="0 0 215 140" fill="none" xmlns="http://www.w3.org/2000/svg">
<g clip-path="url(#clip0_2656_189)">
<path d="M60.3051 83.6633C56.8966 90.7998 52.177 91.5644 46.9331 91.5644H30.9391C25.6952 91.5644 23.0733 89.5254 23.0733 84.9376V61.2342C23.0733 61.2342 34.6099 61.2342 38.805 61.4891C41.6892 61.744 43.5246 62.5086 44.5733 66.5866L45.8843 71.939H50.3417L50.0795 58.4306L50.6039 44.6673H46.1465L44.5733 50.7843C43.5246 54.8623 43.0002 55.3721 38.805 55.8818C34.0855 56.3916 23.0733 56.3916 23.0733 56.3916V28.3552C23.0733 27.3357 23.0733 26.5711 24.9086 26.5711H49.2929C53.488 26.5711 55.8478 30.1394 57.6832 36.7661L58.9941 42.1185H63.1893C63.9759 27.0809 64.5003 20.4541 64.5003 20.4541C64.5003 20.4541 54.0124 21.4736 47.9819 21.4736H16.7806L0 21.2187V25.5516L5.76832 26.5711C9.70126 27.3357 10.75 28.1004 11.0122 31.6686C11.0122 31.6686 11.2744 42.1185 11.2744 59.1952C11.2744 76.2719 11.0122 86.4669 11.0122 86.4669C11.0122 89.5254 9.70126 90.7998 5.76832 91.5644L0 92.5839V96.9168L16.7806 96.407H44.8355C51.1282 96.407 65.8112 96.9168 65.8112 96.9168C66.0734 93.0937 68.171 76.2719 68.6954 74.4877H64.7625L60.3051 83.6633Z" fill="#F27224"/>
<path d="M98.3236 91.5637C93.604 91.5637 90.9821 88.5052 90.9821 80.6041V52.5678L106.714 53.5873L107.5 46.4507L90.9821 47.2154V31.4131H86.5247C84.9516 37.785 83.6406 42.8825 78.3967 46.1959C75.2503 48.2349 72.1039 48.9995 70.793 48.9995V53.0775H80.232V84.937C80.232 93.8576 86.2625 98.1905 94.3906 98.1905C100.683 98.1905 107.238 95.6417 109.336 90.2894L107.238 87.4857C105.927 88.7601 102.519 91.5637 98.3236 91.5637Z" fill="#F27224"/>
<path d="M125.33 55.8825C125.33 51.0399 129.787 49.2557 134.769 49.2557C138.702 49.2557 141.848 50.5301 142.372 52.5691L144.994 60.4703L148.927 60.2154C149.19 56.1374 149.452 51.2947 149.976 47.4716C146.568 45.9424 139.488 45.1777 135.031 45.1777C124.543 45.1777 116.153 49.5106 116.153 59.4508C116.153 76.7823 142.372 73.2141 142.372 85.9578C142.372 90.5456 139.488 93.859 132.933 93.859C126.903 93.859 124.019 90.8005 122.708 87.742L120.086 80.3506H115.891C116.153 82.6445 116.153 85.4481 116.153 88.2517C116.153 91.0553 116.153 93.6041 115.891 94.8785C115.891 94.8785 124.019 97.6821 132.147 97.6821C143.159 97.6821 152.074 92.5846 152.074 82.3896C152.336 65.058 125.33 67.6068 125.33 55.8825Z" fill="#F27224"/>
<path d="M204.775 46.9599L194.025 46.4502V50.0184L196.909 50.7831C199.793 51.5477 200.842 52.5672 200.842 54.6062C200.842 55.6257 200.58 56.3903 200.056 57.9196C198.745 61.233 191.403 78.5645 187.47 86.7205C182.751 75.2511 176.458 58.9391 175.671 55.8806C175.409 55.3708 175.409 54.8611 175.409 54.0965C175.409 52.3123 176.458 51.0379 179.08 50.5282L182.488 49.7636V46.1953L167.805 46.9599L156.269 46.4502V50.0184L158.104 50.5282C160.726 51.2928 161.513 52.0574 163.086 55.6257C171.738 74.7414 175.933 85.4462 181.44 99.2094C175.933 110.169 169.641 113.228 163.872 113.228C160.988 113.228 159.677 111.953 159.153 109.914L157.58 101.758L153.122 102.013C152.336 106.856 151.287 111.953 150.238 116.286C152.86 118.325 157.318 119.345 160.988 119.345C168.33 119.345 179.604 118.325 189.83 94.8766L206.873 55.6257C208.184 52.3123 208.708 52.0574 212.903 50.5282L215.001 49.7636V46.1953L204.775 46.9599Z" fill="#F27224"/>
</g>
<defs>
<clipPath id="clip0_2656_189">
<rect width="215" height="140" fill="white"/>
</clipPath>
</defs>
</svg>
