<svg width="300" height="140" viewBox="0 0 300 140" fill="none" xmlns="http://www.w3.org/2000/svg">
<g clip-path="url(#clip0_2656_195)">
<mask id="mask0_2656_195" style="mask-type:luminance" maskUnits="userSpaceOnUse" x="274" y="43" width="26" height="27">
<path d="M282.874 62.3846C281.868 61.0505 281.301 59.0812 281.301 56.6036C281.301 54.1261 281.805 52.1567 282.874 50.8226C284.95 48.3451 288.599 48.091 291.052 50.1874C291.304 50.378 291.492 50.6321 291.681 50.8226C292.688 52.1567 293.191 54.1261 293.191 56.6036C293.191 59.0812 292.688 61.0505 291.681 62.3846C289.605 64.8622 285.957 65.1163 283.503 63.0199C283.252 62.8293 283.063 62.6387 282.874 62.3846ZM277.716 47.2016C273.501 52.7285 273.501 60.4153 277.716 66.0056C279.792 68.6103 283 69.9443 287.278 69.9443C291.555 69.9443 294.764 68.6738 296.84 66.0056C301.054 60.4788 301.054 52.792 296.84 47.2016C294.764 44.5335 291.555 43.1994 287.278 43.2629C283 43.3264 279.792 44.597 277.716 47.2016Z" fill="white"/>
</mask>
<g mask="url(#mask0_2656_195)">
<path d="M309.419 33.7334H265.133V79.4095H309.419V33.7334Z" fill="#2B3582"/>
</g>
<mask id="mask1_2656_195" style="mask-type:luminance" maskUnits="userSpaceOnUse" x="225" y="43" width="23" height="27">
<path d="M232.86 64.2891C232.168 63.6538 231.853 62.7645 231.916 61.8751C231.853 60.7316 232.419 59.6516 233.426 59.0799C234.369 58.6352 235.376 58.3176 236.383 58.1905L237.829 57.9364C238.396 57.8093 238.962 57.6823 239.528 57.4917C239.968 57.3011 240.409 57.1105 240.786 56.8564V59.334C240.723 61.5574 240.157 63.0821 238.962 63.908C237.829 64.7338 236.508 65.1785 235.124 65.1785C234.307 65.115 233.552 64.8609 232.86 64.2891ZM228.142 46.565C227.009 48.1532 226.38 50.059 226.317 52.0284H232.482C232.608 51.2025 232.923 50.3767 233.426 49.7414C234.055 48.9791 235.124 48.5979 236.697 48.5979C237.766 48.5344 238.836 48.725 239.842 49.1696C240.597 49.6143 240.975 50.4402 240.912 51.3296C240.912 52.2189 240.346 52.9813 239.528 53.2354C238.71 53.553 237.829 53.7436 236.949 53.8071L234.747 54.0612C232.797 54.2518 230.847 54.76 229.085 55.7129C226.758 57.1105 225.562 59.334 225.562 62.4468C225.562 64.8609 226.254 66.7031 227.764 67.9737C229.274 69.2442 231.035 69.816 233.3 69.943C247.265 70.5783 247.14 62.3833 247.265 60.6681V51.139C247.265 48.0897 246.196 46.0568 244.12 44.9133C241.918 43.7698 239.402 43.1981 236.949 43.2616C232.797 43.2616 229.84 44.3416 228.142 46.565Z" fill="white"/>
</mask>
<g mask="url(#mask1_2656_195)">
<path d="M256.641 33.7334H216.129V79.4095H256.641V33.7334Z" fill="#2B3582"/>
</g>
<mask id="mask2_2656_195" style="mask-type:luminance" maskUnits="userSpaceOnUse" x="200" y="43" width="24" height="27">
<path d="M203.302 46.8207C201.163 49.2348 200.094 52.6017 200.094 56.9215C200.094 60.7332 201.037 63.846 202.987 66.26C204.938 68.6741 207.957 69.8811 212.046 69.8811C216.135 69.8811 219.28 68.42 221.356 65.5612C222.614 63.9095 223.369 61.9402 223.558 59.8438H216.764C216.701 60.9873 216.261 62.1308 215.569 63.0837C214.94 63.9095 213.807 64.3542 212.235 64.3542C210.222 64.4813 208.335 63.1472 207.705 61.2414C207.202 59.8438 207.014 58.3191 207.076 56.7945C207.014 55.2063 207.265 53.6181 207.705 52.157C208.523 49.9336 210.096 48.8536 212.361 48.8536C213.682 48.7265 215.003 49.2983 215.883 50.3782C216.387 51.1406 216.701 52.0299 216.827 52.9193H223.684C223.306 49.2983 222.111 46.8207 220.035 45.4231C217.959 44.0255 215.38 43.3267 212.172 43.3267C208.397 43.2632 205.441 44.4067 203.302 46.8207Z" fill="white"/>
</mask>
<g mask="url(#mask2_2656_195)">
<path d="M233.056 33.7334H190.656V79.4095H233.056V33.7334Z" fill="#2B3582"/>
</g>
<mask id="mask3_2656_195" style="mask-type:luminance" maskUnits="userSpaceOnUse" x="184" y="43" width="16" height="26">
<path d="M184.996 55.9672V68.9267H191.413V56.793C191.413 54.8237 191.664 53.3625 192.168 52.4096C193.048 50.6944 194.747 49.8685 197.326 49.8685C197.515 49.8685 197.766 49.8685 198.081 49.8685C198.395 49.8685 198.773 49.9321 199.15 49.9321V43.2617H198.584H198.269C184.178 43.2617 185.059 56.0307 184.996 55.9672Z" fill="white"/>
</mask>
<g mask="url(#mask3_2656_195)">
<path d="M208.522 33.7324H175.559V78.4556H208.522V33.7324Z" fill="#2B3582"/>
</g>
<mask id="mask4_2656_195" style="mask-type:luminance" maskUnits="userSpaceOnUse" x="157" y="43" width="26" height="27">
<path d="M166.054 50.1237C167.061 49.1073 168.508 48.599 169.891 48.6626C171.275 48.599 172.659 49.1073 173.729 49.9966C174.798 51.0131 175.427 52.4742 175.427 53.9988H164.293C164.481 52.5377 165.111 51.2037 166.054 50.1237ZM161.085 46.7567C158.82 49.1073 157.688 52.4107 157.688 56.794C157.688 61.4315 158.946 64.7985 161.462 66.8313C163.915 68.8642 166.998 69.9442 170.143 69.9442C174.106 69.9442 177.252 68.7372 179.453 66.2596C180.523 65.1796 181.278 63.9091 181.718 62.448H174.798C174.547 62.8291 174.232 63.1468 173.918 63.4644C172.974 64.2267 171.716 64.4808 170.269 64.4808C169.074 64.5444 167.878 64.2903 166.809 63.655C165.173 62.6386 164.293 60.9233 164.167 58.3822H182.158C182.221 56.7305 182.158 55.0788 181.97 53.3636C181.718 51.5213 181.026 49.7425 180.02 48.1543C178.95 46.5026 177.503 45.2321 175.742 44.4062C173.918 43.5804 171.967 43.1992 169.954 43.1992C166.306 43.2627 163.349 44.4062 161.085 46.7567Z" fill="white"/>
</mask>
<g mask="url(#mask4_2656_195)">
<path d="M191.597 33.7334H148.254V79.4095H191.597V33.7334Z" fill="#2B3582"/>
</g>
<mask id="mask5_2656_195" style="mask-type:luminance" maskUnits="userSpaceOnUse" x="120" y="43" width="35" height="26">
<path d="M137.488 46.6932C135.727 44.4698 133.085 43.1992 130.254 43.2627C124.026 43.2627 120 47.9638 120 54.1259V68.9913H125.85V53.9988C125.85 51.2672 127.675 49.3614 130.254 49.3614C134.091 49.3614 134.469 52.6012 134.469 53.9988V68.9913H140.319V53.9988C140.319 51.2672 142.206 49.3614 144.723 49.3614C148.56 49.3614 149 52.6012 149 53.9988V68.9913H154.851V54.0624C154.851 47.7097 151.076 43.1992 144.723 43.1992C141.892 43.1992 139.187 44.4698 137.488 46.6932Z" fill="white"/>
</mask>
<g mask="url(#mask5_2656_195)">
<path d="M164.289 33.7334H110.566V78.4565H164.289V33.7334Z" fill="#2B3582"/>
</g>
<mask id="mask6_2656_195" style="mask-type:luminance" maskUnits="userSpaceOnUse" x="250" y="35" width="24" height="35">
<path d="M257.898 62.4462C256.955 60.731 256.451 58.6981 256.577 56.7288C256.514 54.823 256.955 52.9807 257.898 51.3925C258.716 49.9314 260.289 49.1055 261.987 49.2326C263.182 49.2326 264.315 49.6137 265.195 50.4396C266.705 51.7737 267.46 54.1242 267.46 57.1735C267.523 59.0793 267.02 60.9216 266.076 62.5098C265.195 63.8438 263.623 64.6697 261.987 64.5426C260.289 64.6062 258.716 63.8438 257.898 62.4462ZM267.208 40.2117V47.2632C266.516 46.1197 265.573 45.1668 264.44 44.5316C263.245 43.8328 261.924 43.5151 260.54 43.5151C257.584 43.4516 254.753 44.7857 252.928 47.1997C251.041 49.6773 250.098 53.1713 250.098 57.4276C250.098 61.1122 251.041 64.1615 252.991 66.512C254.941 68.8625 258.716 69.8789 262.05 69.8789C273.751 69.8789 273.625 59.524 273.625 59.524V35.6377C273.625 35.6377 273.31 35.5742 272.87 35.5742C271.172 35.6377 267.208 36.0824 267.208 40.2117Z" fill="white"/>
</mask>
<g mask="url(#mask6_2656_195)">
<path d="M282.997 26.1084H240.598V79.4077H282.997V26.1084Z" fill="#2B3582"/>
</g>
<mask id="mask7_2656_195" style="mask-type:luminance" maskUnits="userSpaceOnUse" x="182" y="82" width="25" height="26">
<path d="M190.586 88.8759C191.655 87.923 193.039 87.4148 194.423 87.4783C195.807 87.4148 197.191 87.923 198.26 88.8124C199.33 89.7653 199.959 91.1629 199.959 92.624H188.824C189.013 91.2264 189.579 89.8923 190.586 88.8759ZM185.553 85.636C183.289 87.8595 182.156 91.0993 182.156 95.2921C182.156 99.739 183.414 102.979 185.931 105.012C188.384 106.981 191.466 108.061 194.612 107.998C198.575 107.998 201.657 106.791 203.922 104.44C204.992 103.424 205.746 102.153 206.187 100.755H199.267C199.015 101.137 198.701 101.454 198.386 101.772C197.317 102.534 195.996 102.852 194.675 102.788C193.48 102.852 192.284 102.598 191.215 101.962C189.579 101.01 188.761 99.2943 188.636 96.8803H206.627C206.69 95.2921 206.627 93.6404 206.375 92.0522C206.124 90.2735 205.432 88.5583 204.425 87.0336C203.356 85.4454 201.909 84.2384 200.148 83.4761C198.323 82.7137 196.31 82.3326 194.36 82.3326C190.775 82.2691 187.818 83.4126 185.553 85.636Z" fill="white"/>
</mask>
<g mask="url(#mask7_2656_195)">
<path d="M216.066 72.7383H172.723V117.461H216.066V72.7383Z" fill="#2B3582"/>
</g>
<mask id="mask8_2656_195" style="mask-type:luminance" maskUnits="userSpaceOnUse" x="141" y="73" width="25" height="35">
<path d="M149.26 100.565C148.254 98.9771 147.751 97.1348 147.876 95.229C147.876 92.1797 148.631 90.0198 150.141 88.6857C151.022 87.9234 152.154 87.4787 153.349 87.4787C154.985 87.3517 156.557 88.1775 157.438 89.6386C158.382 91.2903 158.822 93.1326 158.759 95.0384C158.822 96.9443 158.382 98.9136 157.438 100.565C156.557 101.963 155.048 102.725 153.412 102.598C151.777 102.725 150.204 101.899 149.26 100.565ZM141.648 78.4578V97.5795C141.648 97.5795 141.523 107.934 153.223 107.934C156.557 107.934 160.395 106.918 162.282 104.568C164.232 102.217 165.176 99.1677 165.176 95.4831C165.176 91.2268 164.232 87.8599 162.345 85.4458C160.521 83.0318 157.69 81.6977 154.733 81.7613C153.349 81.7613 152.028 82.0789 150.833 82.7777C149.701 83.4765 148.757 84.4294 148.065 85.5729V73.7568C147.876 73.7568 147.625 73.7568 147.436 73.7568C145.8 73.7568 141.648 74.138 141.648 78.4578Z" fill="white"/>
</mask>
<g mask="url(#mask8_2656_195)">
<path d="M174.614 64.1631H132.215V117.462H174.614V64.1631Z" fill="#2B3582"/>
</g>
<mask id="mask9_2656_195" style="mask-type:luminance" maskUnits="userSpaceOnUse" x="167" y="81" width="15" height="26">
<path d="M167.126 94.1479V106.98H173.543V94.9102C173.543 92.8774 173.794 91.4163 174.297 90.4633C175.178 88.7481 176.877 87.9223 179.456 87.9223C179.645 87.9223 179.896 87.9223 180.211 87.9223C180.525 87.9223 180.903 87.9858 181.28 87.9858V81.379L180.714 81.3154H180.399C166.308 81.3154 167.126 94.2115 167.126 94.1479Z" fill="white"/>
</mask>
<g mask="url(#mask9_2656_195)">
<path d="M190.651 71.7871H157.688V116.51H190.651V71.7871Z" fill="#2B3582"/>
</g>
<mask id="mask10_2656_195" style="mask-type:luminance" maskUnits="userSpaceOnUse" x="120" y="73" width="6" height="35">
<path d="M120 78.3919V107.043H125.662V73.7544H125.536C124.655 73.6909 120 73.8814 120 78.3919Z" fill="white"/>
</mask>
<g mask="url(#mask10_2656_195)">
<path d="M135.037 64.1621H110.566V116.509H135.037V64.1621Z" fill="#2B3582"/>
</g>
<path d="M137.365 73H131V79.3646H137.365V73Z" fill="#2B3582"/>
<path d="M137 82H131V107H137V82Z" fill="#2B3582"/>
<mask id="mask11_2656_195" style="mask-type:luminance" maskUnits="userSpaceOnUse" x="0" y="32" width="110" height="77">
<path d="M54.7965 32C24.4283 32.0606 -0.120783 48.3661 0.000447074 68.2478V70.3693C0.0610621 91.4634 21.5794 108.496 55.0389 108.314C88.6803 108.254 109.896 91.0391 109.896 70.0056C109.835 69.2783 109.896 68.8539 109.896 67.8841C109.774 48.1236 85.2858 32 55.0389 32H54.7965V32Z" fill="white"/>
</mask>
<g mask="url(#mask11_2656_195)">
<path d="M118.927 22.9678H-9.15234V117.467H118.927V22.9678Z" fill="#2B3582"/>
</g>
<mask id="mask12_2656_195" style="mask-type:luminance" maskUnits="userSpaceOnUse" x="2" y="33" width="106" height="70">
<path d="M54.8011 33.9375C25.8877 33.9981 2.49028 49.3943 2.5509 68.3062C2.61151 87.2181 26.0695 102.493 54.9829 102.372C83.8963 102.251 107.294 86.9151 107.233 68.0032C107.172 49.0913 83.8357 33.9375 55.0435 33.9375H54.8011Z" fill="white"/>
</mask>
<g mask="url(#mask12_2656_195)">
<path d="M116.324 24.8457H-6.54297V111.465H116.324V24.8457Z" fill="#F8DF32"/>
</g>
<mask id="mask13_2656_195" style="mask-type:luminance" maskUnits="userSpaceOnUse" x="2" y="45" width="106" height="47">
<path d="M29.8883 72.0655C27.8274 72.1261 26.2514 73.8839 26.312 75.9449C26.3726 77.8845 27.9486 79.3999 29.8883 79.5211C30.8581 79.5211 31.7674 79.0968 32.4341 78.4301C32.4948 78.4301 32.4948 78.4907 32.4341 78.5513C32.2523 79.4605 32.0098 82.7944 35.4649 84.1279C36.6772 84.6128 38.0713 84.3703 39.0412 83.5217C39.3443 83.2793 39.4049 83.4005 39.3443 83.7036C39.223 84.5522 39.4049 86.4313 41.9507 87.4011C43.2842 88.0072 44.8602 87.7042 45.8301 86.6737C46.1938 86.3707 46.2544 86.4313 46.315 86.9162C46.3756 89.462 48.4971 91.4623 51.043 91.4017C53.5888 91.3411 55.5891 89.2196 55.5285 86.6737C55.4679 84.1279 53.4069 82.067 50.8611 82.067C49.8307 82.067 48.679 82.6731 48.4971 82.6125C48.4971 82.37 48.5577 82.1276 48.679 81.8851C48.8002 81.6427 50.1337 77.4602 46.7999 76.0661C44.1935 74.975 42.6175 76.2479 42.1326 76.7328C41.9507 76.9147 41.8901 76.8541 41.8901 76.6722C41.8295 75.0963 40.799 73.7021 39.2836 73.2172C37.1015 72.5504 34.7981 73.399 33.5252 75.2781C33.3434 73.4596 31.7674 72.0655 29.9489 72.0655H29.8883V72.0655ZM2.42969 64.0643C3.39953 64.3674 4.91491 64.7917 5.58167 64.9129C20.6142 68.2467 25.3422 71.6412 26.1302 72.3686C27.0394 71.2775 28.4335 70.6713 29.8277 70.6713C31.4643 70.6713 32.9797 71.4593 33.8889 72.7929C34.9194 71.9443 36.1923 71.52 37.4652 71.52C38.1926 71.52 38.9199 71.6412 39.6473 71.8836C41.0415 72.2473 42.1325 73.2778 42.6781 74.6113C43.3448 74.3082 44.0722 74.187 44.7996 74.187C45.6482 74.187 46.4968 74.3689 47.2848 74.7326C50.0731 75.8842 50.4974 78.6725 50.255 80.7334C50.4368 80.7334 50.6187 80.7334 50.8005 80.7334C54.0737 80.7334 56.7408 83.4005 56.7408 86.6737C56.7408 87.6436 56.4983 88.6134 56.0134 89.5226C56.9226 90.0075 59.1654 91.1592 61.1657 90.9168C62.7417 90.7349 63.4084 90.1288 63.5903 89.8257C63.7721 89.5226 63.8934 89.3408 63.7721 89.2195L59.5291 84.4916C59.5291 84.4916 58.8623 83.8248 59.0441 83.5824C59.2866 83.3399 59.7109 83.7036 60.014 83.946C62.1355 85.7645 64.8026 88.4922 64.8026 88.4922C64.8026 88.4922 65.045 88.9165 66.0149 89.0377C67.1666 89.2196 68.3789 88.9771 69.4093 88.2497C69.6518 88.0072 69.9549 87.7648 70.1367 87.5223L70.0761 87.583C71.1672 86.1888 69.9549 84.7947 69.9549 84.7947L64.9844 79.2181C64.9844 79.2181 64.3177 78.5513 64.4995 78.3088C64.742 78.0664 65.1663 78.4301 65.4693 78.6725C67.0453 79.9454 69.2881 82.1882 71.349 84.2491C71.7733 84.5522 73.6524 85.7039 76.077 84.0673C77.5317 83.0974 77.8954 81.8851 77.8348 80.9153C77.7136 80.1273 77.3499 79.3999 76.8044 78.8544L70.0155 72.0655C70.0155 72.0655 69.3487 71.4593 69.5306 71.1563C69.773 70.8532 70.1973 71.2775 70.5004 71.52C72.6219 73.3384 78.5016 78.6725 78.5016 78.6725C79.8957 79.5818 81.7142 79.5211 83.1083 78.5513C83.9569 78.0664 84.5631 77.1571 84.6237 76.1267C84.6843 75.0962 84.26 74.0658 83.472 73.3384C83.2902 73.1566 66.318 58.3665 62.4992 55.457C60.2564 53.8204 59.0441 53.3961 57.7106 53.2142C56.9226 53.1536 56.1952 53.2142 55.4072 53.3961C53.6494 53.881 51.2854 55.457 49.2245 57.0936C47.0424 58.8514 45.1027 60.4274 43.2236 60.8517C40.799 61.3972 37.8895 60.7305 36.556 59.8212C36.071 59.5182 35.7074 59.0939 35.4649 58.6089C34.98 57.4573 35.8892 56.548 36.0104 56.3662L40.6778 51.2745C41.2233 50.729 41.7689 50.1835 42.3144 49.6379C40.8596 49.8804 39.4655 50.1835 38.0713 50.6078C36.4953 51.1533 34.7981 51.4564 33.1009 51.517C31.4037 51.3351 29.7065 51.0927 28.0092 50.729C23.3419 49.5167 18.8564 47.9407 14.4921 45.9404C8.06689 50.9715 3.64199 57.2148 2.42969 64.0643ZM56.9226 45.0918C48.982 45.3343 45.527 48.7287 41.9507 52.4262L37.344 57.4573C37.344 57.5179 36.7984 58.0634 37.1015 58.4877C37.8895 59.5788 40.4959 60.1849 43.1024 59.5788C44.6178 59.2151 46.6181 57.6391 48.5577 56.0631C50.6793 54.3659 52.6796 52.7293 54.8011 52.0625C56.2559 51.517 57.8925 51.4564 59.3472 51.9413C60.8626 52.4868 62.2567 53.3354 63.469 54.3659C67.1059 57.0936 81.6536 69.8227 84.1994 71.9443C91.655 68.671 99.4744 66.1252 107.415 64.3674C106.324 57.821 102.323 51.8807 96.3224 47.0315C87.9575 50.6078 77.7136 52.4868 67.7121 47.577C67.6515 47.577 62.4992 45.1524 57.2863 45.1524L56.9226 45.0918Z" fill="white"/>
</mask>
<g mask="url(#mask13_2656_195)">
<path d="M116.506 35.999H-6.66406V100.433H116.506V35.999Z" fill="white"/>
</g>
<mask id="mask14_2656_195" style="mask-type:luminance" maskUnits="userSpaceOnUse" x="2" y="43" width="106" height="51">
<path d="M26.6136 75.9439C26.553 74.1255 28.0078 72.5495 29.8262 72.5495C31.5841 72.4888 33.0388 73.8224 33.2207 75.5196L33.3419 76.4288L33.8268 75.7015C34.736 74.3679 36.1908 73.5799 37.7668 73.5193C38.2517 73.5193 38.7366 73.5799 39.2215 73.7011C40.6157 74.1254 41.5249 75.3984 41.5855 76.8531C41.6461 77.3381 41.9492 77.338 42.0098 77.338C42.1311 77.338 42.3129 77.2774 42.4341 77.1562C43.0403 76.4894 43.9495 76.1258 44.8587 76.0651C45.4649 76.0651 46.1317 76.247 46.6772 76.4894C49.8292 77.823 48.435 81.8842 48.435 81.9448C48.132 82.6116 48.132 82.9146 48.3744 83.0965L48.4957 83.1571H48.6169C48.7987 83.0965 49.0412 83.0359 49.223 82.9753C49.7686 82.7328 50.3747 82.6116 50.9203 82.6116C53.2842 82.6116 55.1633 84.4906 55.1633 86.8546C55.1633 89.2186 53.2842 91.0977 50.9203 91.0977C48.6169 91.0977 46.6772 89.2792 46.556 86.9759C46.556 86.794 46.556 86.2485 46.0711 86.2485C45.8892 86.2485 45.7074 86.3697 45.5861 86.5515C45.0406 87.1577 44.3132 87.5214 43.4646 87.5214C42.9797 87.5214 42.4948 87.4002 42.0705 87.2183C39.5852 86.1879 39.5852 84.5512 39.7065 83.8845C39.7671 83.7026 39.7671 83.5208 39.6459 83.3996L39.464 83.2783H39.3428C39.2215 83.2783 39.0397 83.3389 38.9791 83.4602C38.3729 83.9451 37.6456 84.2482 36.8576 84.2482C36.4939 84.2482 36.0696 84.1875 35.7059 84.0057C32.4933 82.7328 32.7357 79.702 32.9176 78.7322C32.9176 78.5504 32.9176 78.3685 32.7963 78.3079L32.5539 78.1261L32.3114 78.3685C31.7053 78.9747 30.8567 79.3383 30.0081 79.2777C28.129 79.2171 26.6742 77.7624 26.6136 75.9439ZM57.4061 43.333H56.9211C50.3141 43.5149 46.6166 45.8788 44.1314 47.8791C41.9492 48.0004 39.8277 48.4247 37.7668 49.0308C36.312 49.5157 34.7966 49.8188 33.2813 49.8794C32.9782 49.8794 32.5539 49.8794 32.1902 49.8794H31.5234C29.9474 49.8188 21.825 47.8791 15.3998 45.4545C14.7331 45.9395 14.0663 46.4244 13.4602 46.9093C20.1884 49.637 28.4321 51.7585 30.9779 51.8797L33.2207 52.001C34.9785 51.8797 36.6757 51.5767 38.3123 51.0311C39.3428 50.728 40.4339 50.425 41.5249 50.2431C41.2218 50.5462 40.9188 50.8493 40.6157 51.1524L35.9483 56.1834C35.5846 56.5471 34.736 57.5775 35.2816 58.7898C35.5846 59.3354 35.9483 59.8203 36.4939 60.1234C38.0092 60.972 39.7065 61.3963 41.4643 61.3963C42.1311 61.3963 42.7978 61.3357 43.4646 61.2144C45.4043 60.7901 47.4652 59.0929 49.6473 57.3957C51.3446 56.0016 53.8298 54.2437 55.7088 53.6982C56.2544 53.577 56.8605 53.4557 57.4061 53.4557C57.5879 53.4557 57.7091 53.4557 57.891 53.5163C59.1639 53.6982 60.3762 54.1225 62.4977 55.6985C66.3165 58.608 83.3493 73.3981 83.4705 73.5193C84.1373 74.1861 84.501 75.0953 84.501 76.0045C84.4404 76.9138 83.9555 77.7018 83.1675 78.1867C82.5007 78.611 81.7127 78.8534 80.9247 78.914C80.2579 78.914 79.5306 78.7322 78.985 78.3685C78.9244 78.3079 73.1054 72.9738 70.9232 71.2159C70.6201 70.9735 70.3171 70.7916 69.9534 70.6704C69.7715 70.6704 69.5897 70.731 69.4685 70.9129C69.1048 71.3372 69.5291 71.8827 69.9534 72.307L76.7423 79.0959C77.2272 79.5808 77.5909 80.2476 77.7121 80.9143C77.7727 82.066 77.2272 82.9752 76.0755 83.7632C75.3481 84.3088 74.4995 84.5513 73.6509 84.5513C72.9841 84.5513 72.2567 84.3088 71.7112 83.9451L70.7414 82.9753C68.9229 81.2174 67.1045 79.399 65.7709 78.2473C65.4679 77.9442 65.1042 77.7624 64.7405 77.7624C64.5586 77.7624 64.4374 77.823 64.3162 77.9442C64.1343 78.126 64.0131 78.4291 64.4374 78.914C64.5586 79.0353 64.6799 79.2171 64.8011 79.3384L69.7715 84.9149C70.3777 85.5817 70.4383 86.5515 69.8928 87.2789L69.7109 87.5214L69.2866 88.0063C68.5592 88.5518 67.7106 88.7943 66.862 88.7943C66.6195 88.7943 66.3771 88.7943 66.1952 88.7337C65.8316 88.6731 65.5285 88.5518 65.2254 88.37L65.1648 88.3094C64.8617 88.0063 62.3765 85.4605 60.3156 83.7632C60.0731 83.5208 59.7094 83.3389 59.3457 83.2783C59.1639 83.2783 58.9821 83.3389 58.8608 83.4602C58.4365 83.9451 59.0427 84.6119 59.3457 84.8543L63.5888 89.5217C63.5888 89.5823 63.5282 89.6429 63.4069 89.8247C63.2857 90.0066 62.7402 90.4915 61.2248 90.7946C61.043 90.7946 60.8005 90.8552 60.6187 90.8552C59.1639 90.7946 57.7698 90.3703 56.4968 89.6429C56.9211 88.7943 57.103 87.8851 57.103 86.9152C57.103 83.4602 54.3753 80.6719 50.9203 80.6113H50.8596H50.6172C50.7384 79.0353 50.4959 76.0045 47.4046 74.671C46.556 74.3073 45.6467 74.1255 44.7375 74.0648C44.0707 74.0648 43.404 74.1861 42.7978 74.4285C42.1917 73.1556 41.04 72.2464 39.7065 71.8221C38.9791 71.5796 38.2517 71.4584 37.4637 71.4584C36.1908 71.4584 34.9785 71.8827 33.948 72.6101C32.9176 71.3372 31.4022 70.6098 29.8262 70.6098C28.4321 70.6098 27.0379 71.2159 26.0681 72.1858C24.7346 71.1553 19.5217 67.8821 5.51958 64.7301C4.85281 64.5483 3.27682 64.124 2.3676 63.8815C2.18575 64.6089 2.12514 65.3969 2.00391 66.1849C2.00391 66.1849 4.61035 66.791 5.09527 66.9123C19.4004 70.0643 24.0678 73.3375 24.8558 73.9436C24.6133 74.6104 24.4315 75.2771 24.4315 76.0045C24.4921 79.0353 26.9773 81.3993 30.0081 81.3386C30.2505 81.3386 30.493 81.3386 30.7354 81.278C31.1597 83.4602 32.7357 85.218 34.7966 85.9454C35.4028 86.1879 36.0696 86.3091 36.6757 86.3091C37.1 86.3091 37.4637 86.2485 37.888 86.1878C38.4942 87.6426 39.7065 88.7943 41.1612 89.2792C41.828 89.5823 42.5554 89.7035 43.2828 89.7035C43.8283 89.7035 44.4344 89.5823 44.9194 89.4005C45.8892 91.7644 48.1926 93.2798 50.7384 93.2798C52.4356 93.2798 54.0722 92.5524 55.2239 91.3401C56.8605 92.2494 58.679 92.7949 60.558 92.9161C60.8005 92.9161 61.1036 92.9161 61.346 92.8555C63.5282 92.613 64.498 91.7038 64.9223 91.0977C64.9829 90.9764 65.1042 90.8552 65.1648 90.734C65.7103 90.9158 66.3165 91.037 66.862 90.9764C68.1349 90.9158 69.2866 90.4915 70.2565 89.7035C71.2869 89.0368 72.0143 87.9457 72.2568 86.7334V86.6728C72.6204 86.7334 72.9841 86.794 73.4084 86.794C74.6813 86.794 75.8937 86.3697 76.9241 85.6423C79.1669 84.1876 79.5306 82.3085 79.4699 81.0962C79.8336 81.1568 80.2579 81.2174 80.6216 81.2174C81.7733 81.1568 82.925 80.8537 83.9555 80.187C85.289 79.3383 86.1376 77.9442 86.2588 76.4288C86.3194 75.3984 86.077 74.3073 85.5314 73.3981C92.684 70.4885 100.018 68.1246 107.474 66.4273C107.413 65.7 107.292 64.8514 107.171 64.124C99.2911 65.8818 91.593 68.367 84.2585 71.6402C79.0456 67.0941 66.9226 56.6077 63.6494 54.1831C62.3765 53.092 60.9824 52.304 59.4064 51.6979C58.7396 51.4554 58.0728 51.3948 57.3454 51.3948C56.4362 51.3948 55.5876 51.5767 54.739 51.8191C52.6175 52.4859 50.4959 54.1831 48.4957 55.8197L48.3744 55.8803C46.4953 57.3957 44.4951 58.9717 43.0403 59.2748C42.3735 59.396 41.7068 59.5172 41.04 59.5172C39.4034 59.5172 37.888 59.0323 37.2819 58.3655C37.1606 58.2443 37.2212 58.0625 37.4637 57.7594L37.5243 57.6988L42.1311 52.7283C45.7074 49.1521 49.1018 45.697 56.9211 45.5152H57.3454C62.1946 45.5152 67.1045 47.6973 67.65 47.8791C72.0143 50.0613 76.8029 51.213 81.6521 51.213C86.5619 51.213 91.6536 49.9401 97.0483 47.4548C96.4421 46.9699 95.836 46.4244 95.1692 46.0001C90.9262 47.9398 86.3194 49.0308 81.6521 49.0914C77.106 49.0308 72.6204 48.0004 68.4986 46.0001C68.2562 45.8788 62.922 43.3936 57.3454 43.3936L57.4061 43.333Z" fill="white"/>
</mask>
<g mask="url(#mask14_2656_195)">
<path d="M116.809 34.2412H-7.02734V102.251H116.809V34.2412Z" fill="#2B3582"/>
</g>
</g>
<defs>
<clipPath id="clip0_2656_195">
<rect width="300" height="140" fill="white"/>
</clipPath>
</defs>
</svg>
