<svg width="300" height="140" viewBox="0 0 300 140" fill="none" xmlns="http://www.w3.org/2000/svg">
<path d="M81.5847 35.2147C81.548 34.9581 81.4363 34.7225 81.2673 34.5449C81.0983 34.3673 80.8815 34.2578 80.6509 34.2336C80.278 34.1666 72.0891 33.5304 72.0891 33.5304L65.8453 26.5222C65.2844 25.819 64.0375 26.0266 63.5661 26.1739C63.5065 26.1739 62.3191 26.5925 60.383 27.299C58.4977 21.1848 55.1624 15.5728 49.2915 15.5728H48.7903C47.1048 13.1284 45.0464 12 43.3012 12C29.6262 12.067 23.1049 31.2133 21.0465 40.9974L11.4883 44.2889C8.55583 45.337 8.44545 45.414 8.05764 48.5515L0 118.309L60.4039 131L93.1416 123.078C93.1416 123.011 81.6473 35.8844 81.5877 35.2214L81.5847 35.2147ZM57.0329 28.4776C55.5115 29.0402 53.7514 29.6027 51.9137 30.2356V28.9732C51.9734 25.819 51.5468 22.6782 50.6667 19.678C53.7275 20.207 55.7859 24.0644 57.0329 28.4776ZM46.9795 20.4883C47.9789 23.7932 48.4711 27.2756 48.3458 30.768V31.3975L37.7853 35.0808C39.8526 26.4184 43.6622 22.1357 46.9735 20.5251L46.9795 20.4883ZM42.9223 16.2257C43.5488 16.2425 44.1544 16.4601 44.6705 16.8552C40.2643 19.159 35.6075 24.9718 33.6088 36.611L25.2558 39.4839C27.6125 30.6508 33.1106 16.2056 42.9164 16.2056L42.9223 16.2257Z" fill="#96BE4F"/>
<path d="M80.6539 34.2303C80.281 34.1633 72.0921 33.5271 72.0921 33.5271L65.8483 26.5188C65.6186 26.2509 65.3053 26.1036 64.9742 26.1003L60.4159 130.987L93.1535 123.064L81.5906 35.275C81.5131 34.7392 81.1372 34.3106 80.6569 34.2269L80.6539 34.2303Z" fill="#5F8D42"/>
<path d="M49.2885 54.5619L45.2254 68.0226C42.7702 66.6833 40.0823 65.9701 37.3557 65.9131C30.9806 65.9131 30.6733 70.4 30.6733 71.5251C30.6733 77.6527 44.9778 80.01 44.9778 94.4552C44.9778 105.813 38.543 113.106 29.9215 113.106C19.5519 113.106 14.2418 105.883 14.2418 105.883L16.9983 95.5702C16.9983 95.5702 22.4277 100.827 27.0577 100.827C27.6111 100.852 28.1631 100.75 28.6803 100.528C29.1975 100.305 29.6691 99.9673 30.0664 99.5343C30.4637 99.1012 30.7784 98.582 30.9915 98.0082C31.2045 97.4344 31.3114 96.818 31.3057 96.1964C31.3057 88.1266 19.5609 87.7784 19.5609 74.599C19.5609 63.5157 26.6788 52.717 40.9862 52.717C46.6096 52.8107 49.2975 54.5586 49.2975 54.5586L49.2885 54.5619Z" fill="white"/>
<path d="M121.566 74.6124C119.23 73.206 118.022 71.9905 118.022 70.3264C118.022 68.2169 119.662 66.854 122.326 66.854C124.304 66.9022 126.254 67.3809 128.069 68.2637L130.223 60.9173C130.223 60.9173 128.248 59.2029 122.461 59.2029C114.388 59.2029 108.78 64.3929 108.78 71.6858C108.78 75.8111 111.381 78.9854 114.877 81.249C117.702 83.0906 118.696 84.3094 118.696 86.2314C118.696 88.1534 117.306 89.7573 114.659 89.7573C110.76 89.7573 107.082 87.4938 107.082 87.4938L104.797 94.8403C104.797 94.8403 108.207 97.4052 113.902 97.4052C122.195 97.4052 128.161 92.8245 128.161 84.5472C128.206 80.067 125.199 76.9462 121.598 74.5789L121.566 74.6124ZM154.661 59.1593C150.58 59.1593 147.352 61.3258 144.882 64.6709L144.745 64.6206L148.289 43.8068H139.056L130.086 96.8125H139.325L142.418 78.6907C143.629 71.8465 146.783 67.6141 149.727 67.6141C151.785 67.6141 152.597 69.1745 152.597 71.4414C152.597 72.9817 152.46 74.5119 152.194 76.0221L148.698 96.7622H157.937L161.57 75.3323C161.967 73.1123 162.197 70.8588 162.242 68.6019C162.197 62.7623 159.461 59.2397 154.664 59.2397L154.661 59.1593ZM183.091 59.1593C171.97 59.1593 164.613 70.4369 164.613 82.9332C164.613 90.9896 169.052 97.4319 177.352 97.4319C188.261 97.4319 195.65 86.4558 195.65 73.6581C195.65 66.2078 191.751 59.1593 183.106 59.1593H183.091ZM178.557 89.5129C175.415 89.5129 174.073 86.4993 174.073 82.7825C174.073 76.8424 176.8 67.1286 181.835 67.1286C185.108 67.1286 186.2 70.2996 186.2 73.3734C186.188 79.7522 183.455 89.5129 178.563 89.5129H178.557ZM219.277 59.1593C213.013 59.1593 209.499 65.2803 209.499 65.2803H209.361L209.907 59.7688H201.724L199.845 73.5141L193.431 111.472H202.628L205.188 96.116H205.367C205.367 96.116 207.246 97.4755 210.796 97.4755C221.649 97.4755 228.734 84.9925 228.734 72.3756C228.779 65.4276 226.008 59.1895 219.271 59.1895L219.277 59.1593ZM210.441 89.6636C209.047 89.6947 207.69 89.1569 206.623 88.1501L208.15 78.4329C209.242 71.9872 212.231 67.6577 215.459 67.6577C218.284 67.6577 219.134 70.5775 219.134 73.35C219.149 80.1038 215.614 89.6669 210.453 89.6669L210.441 89.6636ZM241.974 44.2588C240.56 44.2488 239.199 44.8783 238.206 46.0067C237.212 47.1351 236.661 48.6654 236.714 50.2525C236.714 53.313 238.465 55.4426 241.079 55.4426H241.216C241.929 55.4744 242.64 55.3418 243.305 55.0531C243.971 54.7645 244.576 54.3257 245.085 53.7641C245.593 53.2024 245.994 52.5297 246.262 51.7875C246.53 51.0454 246.659 50.2494 246.642 49.4489C246.642 46.4353 244.846 44.2588 242.018 44.2588H241.974ZM229.068 96.712H238.307L244.584 59.9797H235.312M268.127 59.9295H261.675L261.991 58.2151C262.537 54.6892 264.413 51.5182 267.444 51.5182C268.449 51.5186 269.447 51.6879 270.407 52.0205L272.191 43.9072C272.191 43.9072 270.55 43.0031 267.167 43.0031C263.875 42.9113 260.661 44.1427 258.107 46.4755C254.966 49.4891 253.483 53.8219 252.737 58.205L252.439 59.9194H248.134L246.786 67.7213H251.09L246.18 96.7187H255.452L260.362 67.7213H266.734L267.987 59.9194L268.127 59.9295ZM290.376 59.9797L281.987 85.2503H281.85L279.565 59.9797H269.828L275.392 93.7051C275.525 94.2816 275.461 94.8934 275.213 95.4195C274.004 97.9208 272.283 100.06 270.189 101.664C268.584 102.903 266.833 103.888 264.986 104.584L267.546 113.391C270.93 112.374 274.037 110.431 276.588 107.735C280.803 103.302 284.702 96.4576 288.7 87.1422L300 59.9596H290.373L290.376 59.9797Z" fill="black"/>
</svg>
