<?xml version="1.0" encoding="utf-8"?>
<!-- Generator: Adobe Illustrator 26.4.1, SVG Export Plug-In . SVG Version: 6.00 Build 0)  -->
<svg version="1.1" id="logo" xmlns="http://www.w3.org/2000/svg" xmlns:xlink="http://www.w3.org/1999/xlink" x="0px" y="0px"
	 viewBox="0 0 575.71 99.9" style="enable-background:new 0 0 575.71 99.9;" xml:space="preserve">
<style type="text/css">
	.st0{fill:#FFFFFF;}
	.st1{fill:#F4CE19;}
</style>
<path id="add" class="st0" d="M70.77,32.59v54.73H54.35v-5.14c-3.61,4.16-8.98,6.68-16.31,6.68c-14.34,0-26.16-12.59-26.16-28.9
	c0-16.31,11.82-28.9,26.16-28.9c7.33,0,12.7,2.52,16.31,6.68v-5.15H70.77z M54.35,59.95c0-8.21-5.47-13.35-13.03-13.35
	S28.3,51.74,28.3,59.95s5.47,13.35,13.03,13.35S54.35,68.16,54.35,59.95z M163.23,53.71v33.61h-16.42V55.14
	c0-5.47-2.63-8.98-7.88-8.98c-5.47,0-8.54,3.83-8.54,10.29v30.87h-16.42V55.14c0-5.47-2.63-8.98-7.88-8.98
	c-5.47,0-8.54,3.83-8.54,10.29v30.87H81.13V32.59h16.42v5.04c2.52-3.72,7.33-6.57,14.67-6.57c6.46,0,11.27,2.63,14.34,7.22
	c3.06-4.38,8.1-7.22,15.87-7.22C155.02,31.05,163.23,40.03,163.23,53.71z M229.03,32.59v54.73h-16.42v-5.14
	c-3.61,4.16-8.98,6.68-16.31,6.68c-14.34,0-26.16-12.59-26.16-28.9c0-16.31,11.82-28.9,26.16-28.9c7.33,0,12.7,2.52,16.31,6.68
	v-5.15H229.03z M212.61,59.95c0-8.21-5.47-13.35-13.03-13.35s-13.03,5.15-13.03,13.35s5.47,13.35,13.03,13.35
	S212.61,68.16,212.61,59.95z M261.11,48.35v19.38c0,4.71,4.05,5.15,11.27,4.71v14.89c-21.46,2.19-27.69-4.27-27.69-19.59V48.35
	h-8.76V32.59h8.76V22.35l16.42-4.93v15.16h11.27v15.76H261.11z M315.44,31.7v18.61c-6.79-1.09-16.42,1.64-16.42,12.48v24.74H282.6
	V32.79h16.42v9.74C301.21,35.2,308.55,31.7,315.44,31.7z M377.79,32.59v54.73h-16.42v-5.14c-3.61,4.16-8.98,6.68-16.31,6.68
	c-14.34,0-26.16-12.59-26.16-28.9c0-16.31,11.82-28.9,26.16-28.9c7.33,0,12.7,2.52,16.31,6.68v-5.15H377.79z M361.37,59.95
	c0-8.21-5.47-13.35-13.03-13.35c-7.55,0-13.03,5.15-13.03,13.35s5.47,13.35,13.03,13.35C355.9,73.31,361.37,68.16,361.37,59.95z
	 M443.59,11.05v76.27h-16.42v-5.14c-3.61,4.16-8.98,6.68-16.31,6.68c-14.34,0-26.16-12.59-26.16-28.9c0-16.31,11.82-28.9,26.16-28.9
	c7.33,0,12.7,2.52,16.31,6.68v-21.8L443.59,11.05z M427.17,59.95c0-8.21-5.47-13.35-13.03-13.35c-7.55,0-13.03,5.15-13.03,13.35
	s5.47,13.35,13.03,13.35C421.69,73.31,427.17,68.16,427.17,59.95z M481.03,74.18c4.49,0,8.32-1.75,10.51-4.16l13.14,7.55
	c-5.36,7.44-13.46,11.27-23.86,11.27c-18.72,0-30.32-12.59-30.32-28.9c0-16.31,11.82-28.9,29.12-28.9c15.98,0,27.8,12.37,27.8,28.9
	c0,2.3-0.22,4.49-0.66,6.57h-38.86C469.98,72.21,475.01,74.18,481.03,74.18z M491.1,54.26c-1.75-6.35-6.68-8.65-11.6-8.65
	c-6.24,0-10.4,3.06-11.93,8.65H491.1z"/>
<path id="amatrade" class="st1" d="M504.59,23.56h59.24l-45.72,53.76c0,0,4.76-17.54,1.06-30.95
	C515.33,32.42,504.59,23.56,504.59,23.56z"/>
</svg>
